<?xml version="1.0" standalone="no"?>
<!DOCTYPE svg PUBLIC "-//W3C//DTD SVG 1.1//EN" "http://www.w3.org/Graphics/SVG/1.1/DTD/svg11.dtd">
<svg xmlns="http://www.w3.org/2000/svg">
<metadata>Copyright (C) 2021 by original authors @ fontello.com</metadata>
<defs>
<font id="hitman2" horiz-adv-x="1000" >
<font-face font-family="hitman2" font-weight="400" font-stretch="normal" units-per-em="1000" ascent="850" descent="-150" />
<missing-glyph horiz-adv-x="1000" />
<glyph glyph-name="bullet-dancer" unicode="&#xe800;" d="M235 319q98 0 165-68 69-69 69-167 0-97-69-165-67-69-165-69-97 0-167 69-68 68-68 165 0 98 68 167 70 68 167 68m0-87q-61 0-104-44-43-43-43-104 0-61 43-103 43-43 104-43 61 0 103 43 43 42 43 103 0 61-43 104-42 44-103 44m78-148q0-31-23-54-23-22-55-22-32 0-55 22-22 23-22 54 0 33 22 55 23 23 55 23 32 0 55-23 23-22 23-55m0 531q0-32-23-55-23-22-55-22-32 0-55 22-22 23-22 55 0 32 22 55 23 23 55 23 32 0 55-23 23-23 23-55m-78 147q-61 0-104-43-43-43-43-104 0-61 43-103 43-44 104-44 61 0 103 44 43 42 43 103 0 61-43 104-42 43-103 43m0 88q98 0 165-69 69-68 69-166 0-97-69-166-67-68-165-68-97 0-167 68-68 69-68 166 0 98 68 166 70 69 167 69m603-766q0-31-22-54-23-22-55-22-32 0-55 22-23 23-23 54 0 33 23 55 23 23 55 23 32 0 55-23 22-22 22-55m-77 148q-61 0-103-44-43-43-43-104 0-61 43-103 43-43 103-43 61 0 104 43 43 42 43 103 0 61-43 104-43 44-104 44m0 87q97 0 166-68 68-69 68-167 0-97-68-165-69-69-166-69-98 0-165 69-69 68-69 165 0 98 69 167 67 68 165 68m0 443q-61 0-103-43-43-43-43-104 0-61 43-103 43-44 103-44 61 0 104 44 43 42 43 103 0 61-43 104-43 43-104 43m77-147q0-32-22-55-23-22-55-22-32 0-55 22-23 23-23 55 0 32 23 55 23 23 55 23 32 0 55-23 22-23 22-55m-77 235q97 0 166-69 68-68 68-166 0-97-68-166-69-68-166-68-98 0-165 68-69 69-69 166 0 98 69 166 67 69 165 69" horiz-adv-x="995" />

<glyph glyph-name="challenge" unicode="&#xe801;" d="M72 603q0-60 42-101 42-43 101-43l5 0-5 57 0 200-143 0 0-113m713-87l-6-57 6 0q59 0 101 43 42 41 42 101l0 113-143 0 0-200m0 334l0-62 215 0 0-185q0-90-63-153-63-63-152-63l-29 2q-29-61-84-105-55-42-123-56l0-197 69 0 0-60 116 0 0-121-469 0 0 121 118 0 0 60 68 0 0 197q-68 14-123 56-55 44-85 105l-28-2q-89 0-152 63-63 63-63 153l0 185 215 0 0 62 570 0" horiz-adv-x="1000" />

<glyph glyph-name="challenge-category-assassination" unicode="&#xe802;" d="M141 306q14-124 102-213 90-89 214-103l0 106q-80 14-139 72-58 57-71 138l-106 0m316 403q-124-15-214-103-88-88-102-213l106 0q13 80 71 138 59 58 139 72l0 106m86-719q125 14 214 103 89 89 103 213l-107 0q-13-81-71-138-58-58-139-72l0-106m210 403l107 0q-14 125-103 213-89 88-214 103l0-106q81-14 139-72 58-58 71-138m-253-223q74 0 128 53 51 52 51 127 0 74-51 127-54 52-128 52-74 0-127-52-52-53-52-127 0-75 52-127 53-53 127-53m447 223l53 0 0-87-53 0q-15-160-129-274-115-114-275-129l0-53-86 0 0 53q-159 15-274 129-115 114-130 274l-53 0 0 87 53 0q15 160 130 275 115 113 274 128l0 54 86 0 0-54q160-15 275-128 114-115 129-275" horiz-adv-x="1000" />

<glyph glyph-name="challenge-category-discovery" unicode="&#xe803;" d="M330 629l274-214 51-342-271 215-54 341m170 221q207 0 354-146 146-146 146-354 0-207-146-353-147-147-354-147-207 0-353 147-147 146-147 353 0 208 147 354 146 146 353 146m30-560q25 14 33 43 7 28-8 54-14 26-42 33-29 8-55-7-25-15-33-44-7-28 8-53 15-26 43-33 29-8 54 7m14-348q144 15 247 118 102 103 118 246l-82 0 0 88 82 0q-16 144-118 248-103 102-247 118l0-82-88 0 0 82q-144-16-247-118-103-104-118-248l82 0 0-88-82 0q15-143 118-246 103-103 247-118l0 81 88 0 0-81" horiz-adv-x="1000" />

<glyph glyph-name="challenge-category-item" unicode="&#xe804;" d="M89 541l0-421 366-157 0 420-366 158m456-578l365 157 0 421-365-158 0-420m-45 794l-342-148 342-147 342 147-342 148m499-137l2-11 0-519q0-13-8-24l-20-17-457-197-6-1-3 0-7-1-8 1-2 0-7 1-457 197q-26 12-26 41l0 519 1 11 0 1 3 9 2 2 5 7 1 1 7 6 0 1 1 0 6 4 456 196q18 6 36 0l455-196 6-4 1 0 1-1 7-6 1-1 5-7 1-2 3-9 1-1" horiz-adv-x="1001" />

<glyph glyph-name="check" unicode="&#xe805;" d="M358-130l-347 350q-11 11-11 25 0 16 11 26l106 105q11 11 25 10 16 0 25-10l214-216 465 675q9 12 25 14 13 3 26-6l123-84q12-9 15-24 2-14-6-27l-573-830q-18-25-47-28-29-2-51 20" horiz-adv-x="1035" />

<glyph glyph-name="civilians" unicode="&#xe806;" d="M1035 286q0-17-12-29-11-11-28-11-17 0-28 11-12 12-12 29l0 176-33 0 0-564q0-20-14-34-15-14-35-14-20 0-34 14-14 14-14 34l0 352-38 0 0-352q0-20-14-34-15-14-34-14-20 0-35 14-15 14-15 34l0 564-32 0 0-176q0-17-12-29-12-11-28-11-17 0-29 11-12 12-12 29l0 256q0 33 24 56 24 23 57 23l298 0q34 0 57-23 23-23 23-56l0-256m-229 564q41 0 71-29 29-30 29-71 0-41-29-71-30-28-71-28-41 0-71 28-29 30-29 71 0 41 29 71 30 29 71 29m-546 0q41 0 71-29 28-30 28-71 0-41-28-71-30-28-71-28-43 0-71 28-29 30-29 71 0 41 29 71 28 29 71 29m259-564q0-17-12-29-12-11-28-11-27 0-40 40l-60 176-34 0 106-344-76 0 0-220q0-20-14-34-15-14-34-14-20 0-34 14-15 14-15 34l0 220-36 0 0-220q0-20-15-34-15-14-35-14-20 0-34 14-15 14-15 34l0 220-76 0 106 344-32 0-61-176q-12-40-40-40-18 0-29 11-11 12-11 29l76 256q24 79 80 79l207 0q31 0 50-21 17-18 31-58l75-256" horiz-adv-x="1035" />

<glyph glyph-name="close-range" unicode="&#xe807;" d="M145 331l35 36-37 36 55 55 222-220-55-55-37 36-35-36-148 148m614 331l-17 16-82-80 36-36-27-27q34-20 53-52 20-35 20-75 0-37-19-70 31-66 31-141 0-66-25-127-24-58-69-105l87 0 0-115-650 0 0 115 82 0q-36 37-59 83l-120 0 0 89 344 0 0-89-82 0q31-32 71-50 41-18 87-18 90 0 153 64 64 64 64 153 0 36-11 68l-31-3q-40 0-74 20-33 20-53 52l-27-27-173 172 255 255 36-35 82 82-18 17 54 52 135-136-53-52" horiz-adv-x="812" />

<glyph glyph-name="completion" unicode="&#xe808;" d="M500 350l0 412q-170 0-291-122-121-120-121-290l412 0m0 500q208 0 353-147 147-146 147-353 0-207-147-354-145-146-353-146-207 0-354 146-146 147-146 354 0 207 146 353 147 147 354 147" horiz-adv-x="1000" />

<glyph glyph-name="completion-list" unicode="&#xe809;" d="M308-48l0 206-205 0 0-206 205 0m0 501l-205 0 0-206 205 0 0 206m-64-36l49-33-65-101-15-11-18-1-14 10-61 72 44 38 36-42 44 68m49 268l-65-102-15-11-18-1-14 10-61 73 44 38 36-43 44 69 49-33m-190 62l0-206 205 0 0 206-205 0m809 103q36 0 62-26 26-26 26-62l0-824q0-36-26-61-26-27-62-27l-824 0q-36 0-62 27-26 25-26 61l0 824q0 36 26 62 26 26 62 26l824 0" horiz-adv-x="1000" />

<glyph glyph-name="complication" unicode="&#xe80a;" d="M547 199l1 199-96 0 0-199-103 0 0 302 302 0 0-302-104 0m350-246l0 350 103 0 0-453-1000 0 0 453 103 0 0-350 350 0 0 71-279 0 0 651 279 0 0-103-175 0 0-444 444 0 0 444-175 0 0 103 278 0 0-651-278 0 0-71 350 0m-897 897l1000 0 0-452-103 0 0 349-794 0 0-349-103 0 0 452" horiz-adv-x="1000" />

<glyph glyph-name="complication-optional" unicode="&#xe80b;" d="M0 410l0 440 1001 0 0-440-90 0 0 350-351 0 0-131 221 0 0-559-560 0 0 559 220 0 0 131-351 0 0-350-90 0m1001-119l0-441-441 0 0 89 351 0 0 352 90 0m-441-131l131 0 0 380-380 0 0-380 129 0 0 250 121 0-1-250m-470-221l351 0 0-89-441 0 0 441 90 0 0-352" horiz-adv-x="1001" />

<glyph glyph-name="concealed-weapon" unicode="&#xe80c;" d="M1618 62l5-23q0-21-15-40l-34-27-381-118-21-4q-25 0-45 16-19 14-24 38l-116 361-248 0q-140 0-201 242l-466 1q-30 0-50 22-22 20-22 50l0 150q0 30 22 50 20 21 50 21l1119 0 0 49 282 0q24 0 43-15 21-15 27-36l48-179-137-43 164-515m-879 318l121 0-42 127-160 0q15-53 37-88 23-39 44-39" horiz-adv-x="1623" />

<glyph glyph-name="contract" unicode="&#xe80d;" d="M431 323q-21 0-35 15-15 15-15 35 0 20 15 35 14 15 35 15 21 0 35-15 14-15 14-35 0-20-14-35-14-15-35-15m276-351l-124 53 124 54-25 57-176-76-176 76-25-57 123-54-123-53 25-57 176 77 176-77 25 57m284-40q17-35 2-58-15-24-54-24l-878 0q-39 0-53 24-16 24 1 58l449 884q18 34 42 34 25 0 42-34l449-884m-410 391q-21 0-34 15-15 15-15 35 0 20 15 35 13 15 34 15 21 0 35-15 15-15 15-35 0-20-15-35-14-15-35-15m-75 238q-78 0-133-55-55-55-55-133 0-51 25-95 25-43 68-68l0-62 190 0 0 62q42 25 67 68 26 44 26 95 0 78-55 133-55 55-133 55" horiz-adv-x="1000" />

<glyph glyph-name="controller" unicode="&#xe80e;" d="M448 233l104 0 0-186 86 86 72-74-210-209-210 209 73 74 85-86 0 186m104 234l-104 0 0 186-85-86-73 72 210 211 210-211-72-72-86 86 0-186m66-169l0 103 185 0-85 86 72 72 210-209-210-211-72 74 85 85-185 0m-235 0l-186 0 86-85-73-74-210 211 210 209 73-72-86-86 186 0 0-103" horiz-adv-x="1000" />

<glyph glyph-name="corrupt" unicode="&#xe80f;" d="M311 11l161-161-384 0q-36 0-62 26-26 25-26 62l0 824q0 36 26 62 26 26 62 26l271 0 173-175-221-220 221-223-221-221m601 839q37 0 62-26 26-25 26-62l0-824q0-37-26-62-25-26-62-26l-285 0-162 161 222 221-222 223 222 220-174 175 399 0" horiz-adv-x="1000" />

<glyph glyph-name="credits" unicode="&#xe810;" d="M527 798q0 22 14 37 16 15 37 15l370 0q22 0 37-15 15-15 15-37 0-21-15-35-15-16-37-16l-370 0q-21 0-37 16-14 14-14 35m51-948q-21 0-37 15-14 15-14 36 0 21 14 37 16 14 37 14l370 0q22 0 37-14 15-16 15-37 0-21-15-36-15-15-37-15l-370 0m0 224q-21 0-37 15-14 15-14 37 0 21 14 37 16 14 37 14l305 0q21 0 37-14 14-16 14-37 0-22-14-37-16-15-37-15l-305 0m0 224q-21 0-37 15-14 15-14 37 0 21 14 37 16 14 37 14l370 0q22 0 37-14 15-16 15-37 0-22-15-37-15-15-37-15l-370 0m0 225q-21 0-37 15-14 15-14 36 0 21 14 37 16 15 37 15l363 0q22 0 37-15 15-16 15-37 0-21-15-36-15-15-37-15l-363 0m-155 224l-371 0q-21 0-37 16-15 14-15 35 0 22 15 37 15 15 37 15l371 0q21 0 36-15 15-15 15-37 0-21-15-35-15-16-36-16m51-846q0-21-15-36-15-15-36-15l-371 0q-21 0-37 15-15 15-15 36 0 21 15 37 15 14 37 14l371 0q21 0 36-14 15-16 15-37m0 225q0-22-15-37-15-15-36-15l-305 0q-22 0-37 15-15 15-15 37 0 21 15 37 15 14 37 14l305 0q21 0 36-14 15-16 15-37m0 224q0-22-15-37-15-15-36-15l-371 0q-21 0-37 15-15 15-15 37 0 21 15 37 15 14 37 14l371 0q21 0 36-14 15-16 15-37m0 224q0-21-15-36-15-15-36-15l-364 0q-21 0-36 15-15 15-15 36 0 21 15 37 15 15 36 15l364 0q21 0 36-15 15-16 15-37" horiz-adv-x="1000" />

<glyph glyph-name="crowd-control" unicode="&#xe811;" d="M1000 838l0-279-3-9-10-3-157 0q-5 0-9 3l-4 9 0 43-34 21-42 8q-34 0-59-25-24-25-24-60l0-39-223 0 0 39q0 35-25 60-25 25-59 25-107 0-223-65-58-33-95-65l-33 33q44 79 121 159 152 157 314 157l218 0 5-4q1-33 25-57 25-23 58-23l42 7q24 9 34 21l0 44 4 8 9 4 157 0 10-4 3-8m0-682l0-210q0-39-27-68-30-28-70-28l-807 0q-40 0-68 28-28 29-28 68l0 210q0 39 28 67 28 28 68 28l339 0 0 215 221 0 0-215 247 0q40 0 70-28 27-28 27-67m-82-158l-5 27q-3 12-12 21l-18 12-25 5-23-5q-12-4-19-13-8-7-13-20-5-12-5-27 0-15 5-26 4-11 13-21 7-9 19-14l23-4 24 4 19 14 12 21 5 26m-60 38q10 0 15-11l5-27-5-26q-5-10-15-10-10 0-15 10-4 10-4 26 0 16 4 27 5 11 15 11m-173 4l23-4 25 4 18 13 12 21 5 26-5 27-12 21q-8 9-18 13l-25 4-23-4-19-13q-7-7-13-21-4-11-4-27 0-14 4-26l13-21q7-8 19-13m-57 10q0 26-5 48-9 21-20 36-15 16-31 23-18 8-41 8-23 0-40-8-17-7-31-23-12-15-20-36-7-24-7-48l7-48 20-37 31-23 39-9q23 0 41 9l31 23q13 17 20 37 6 20 6 48m95 24l-15-11q-10 0-15 11-4 9-4 26 0 17 4 28 5 10 15 10 10 0 15-10l5-28-5-26m-160 29l7-24 3-29-3-31-7-22-13-15q-8-6-19-6-11 0-19 6l-14 15-7 23-2 30 2 29 7 24q6 10 14 15 9 5 19 5 10 0 19-5l13-15m175-165l120 223-30 0-120-223 30 0m-327 112q0 26-7 48-7 21-19 36-15 16-32 23-16 8-40 8-23 0-40-8-16-7-31-23-14-17-19-36l-8-48 8-48 19-37q15-15 31-23l40-9q22 0 40 9 16 8 31 23 14 17 19 37 8 20 8 48m-66 53q5-9 8-24l1-29-1-31q-3-13-8-22l-12-15-20-6q-10 0-20 6l-12 15-8 23-2 30 2 29 8 24 12 15 20 5q10 0 19-5 9-5 13-15m-165 60l-43 0q-4-23-21-34-16-11-38-11l0-37 47 0 0-143 55 0 0 225" horiz-adv-x="1000" />

<glyph glyph-name="cutscene" unicode="&#xe812;" d="M293 697l-122-19 99-122 123 18-100 123m32-430l80 136-123 0-80-136 123 0m183 462l-122-18 100-123 122 19-100 122m-365-318q25 0 43 17 17 17 17 41 0 25-17 42-18 18-43 18-24 0-41-18-18-17-18-42 0-24 18-41 17-17 41-17m400-144l80 136-123 0-80-136 123 0m394 0l0 136-80-136 80 0m-40 521l-79-11 100-123-21 134m-174-26l-121-19 99-121 123 18-101 122m39-495l80 136-124 0-80-136 124 0m-503 193l758 0 0-523q0-36-26-62-25-25-62-25l-815 0q-36 0-61 25-26 26-26 62l0 523-26 168q-5 35 17 64 20 30 56 35l806 122q36 5 65-16 29-20 34-56l27-168-748-114 2-26-1-9" horiz-adv-x="1017" />

<glyph glyph-name="damage" unicode="&#xe813;" d="M889 483l136-30-238-247 42-356-316 156-317-156 43 356-239 247 344 75 169 298 69-122-161-282-185-41 129-134-23-191 171 85 170-85-22 191 228 236m-400-159q-15 15 43 106 29 47 60 89l13 46 216 216 124-123-215-216-47-13-89-61q-91-58-105-44m400 526l126-126-47-47-127 127 48 46" horiz-adv-x="1025" />

<glyph glyph-name="difficulty-1" unicode="&#xe814;" d="M273-48l0-102-273 0 0 102 273 0m-137 898q32 0 68-162 19-80 30-160l37-65 0-466-268 0 0 466 35 65q12 80 30 160 37 162 68 162" horiz-adv-x="273" />

<glyph glyph-name="difficulty-2" unicode="&#xe815;" d="M503 850q31 0 67-162 18-80 30-160l36-65 0-466-268 0 0 466 35 65q13 80 31 160 38 162 69 162m133-1000l-272 0 0 102 272 0 0-102m-363 102l0-102-273 0 0 102 273 0m-137 898q32 0 68-162 19-80 30-160l37-65 0-466-268 0 0 466 35 65q12 80 30 160 37 162 68 162" horiz-adv-x="636" />

<glyph glyph-name="difficulty-3" unicode="&#xe816;" d="M637-48l0-102-273 0 0 102 273 0m230 898q31 0 67-162 19-80 30-160l36-65 0-466-268 0 0 466 36 65q12 80 30 160 38 162 69 162m-367 0q32 0 68-162 19-80 30-160l37-65 0-466-268 0 0 466 36 65q11 80 30 160 36 162 67 162m500-1000l-272 0 0 102 272 0 0-102m-727 102l0-102-273 0 0 102 273 0m-138 898q32 0 68-162 19-80 30-160l36-65 0-466-269 0 0 466 37 65 31 160q36 162 67 162" horiz-adv-x="1000" />

<glyph glyph-name="difficulty-casual" unicode="&#xe817;" d="M426 483q32 0 55 22 22 23 22 54 0 32-22 54-23 23-55 23-32 0-54-23-22-22-22-54 0-31 22-54 22-22 54-22m-116 367q121 0 206-85 85-86 85-206 0-79-39-146-39-66-105-105l0-98-294 0 0 98q-65 39-105 105-39 67-39 146 0 120 85 206 85 85 206 85m310-912l-38-88-272 119-272-119-38 88 190 84-190 83 38 88 272-119 272 119 38-88-190-83 190-84m-426 545q32 0 54 22 22 23 22 54 0 32-22 54-22 23-54 23-31 0-55-23-21-22-21-54 0-31 21-54 24-22 55-22" horiz-adv-x="620" />

<glyph glyph-name="difficulty-level" unicode="&#xe818;" d="M998 850l0-796-203-204 0 642-622-629-161 161 624 623-636 0 204 203 794 0" horiz-adv-x="998" />

<glyph glyph-name="difficulty-professional" unicode="&#xe819;" d="M1107 481q33 0 55 23 22 22 22 54 0 32-22 55-22 22-55 22-31 0-53-22-23-23-23-55 0-32 23-54 22-23 53-23m-117 369q122 0 207-85 86-86 86-207 0-79-40-147-38-66-105-104l0-97-294 0 0 97q-66 38-104 104-40 68-40 147 0 121 85 207 85 85 205 85m-115-369q31 0 54 23 22 22 22 54 0 32-22 55-23 22-54 22-33 0-55-22-23-23-23-55 0-32 23-54 23-23 55-23m426-544l-38-87-273 118-271-118-38 87 190 84-190 83 38 89 271-120 273 120 38-89-190-83 190-84m-875 544q33 0 55 23 23 22 23 54 0 32-23 55-22 22-55 22-31 0-53-22-23-23-23-55 0-32 23-54 23-23 53-23m-115 369q120 0 205-85 85-86 85-207 0-79-40-147-38-66-104-104l0-97-293 0 0 97q-66 38-105 104-40 68-40 147 0 121 85 207 86 85 207 85m-117-369q32 0 54 23 23 22 23 54 0 32-23 55-22 22-54 22-32 0-54-22-22-23-22-55 0-32 22-54 23-23 54-23m427-544l-39-87-271 118-273-118-38 87 190 84-190 83 38 89 273-120 271 120 39-89-191-83 191-84" horiz-adv-x="1301" />

<glyph glyph-name="difficulty-master" unicode="&#xe81a;" d="M683 677q-29 23-69 38 23 60 75 97 54 38 120 38 86 0 146-61 61-61 61-147 0-56-28-104-28-47-75-75l0-70-121 0 6 58q0 79-41 146 24 17 24 45 0 23-17 39-15 16-39 16-25 0-42-20m-255 7l13 4q34 11 74 11 39 0 74-11l14-4q35-15 60-35l5-3 22-19q72-73 72-176 0-66-34-124-33-56-88-88l0-84-250 0 0 84q-55 32-88 88-34 58-34 124 0 103 72 176l24 20 3 2 2 2 1 1 2 2 12 7q20 13 44 23m602-366l-135-59 135-59-28-63-193 85-134-59 0 54 47 42 1 0-1 0q25 27 41 57l46-19 193 85 28-64m-138 379q-23 0-39-16-16-16-16-39 0-23 16-39 16-16 39-16 23 0 39 16 16 16 16 39 0 23-16 39-16 16-39 16m-278-310q27 0 46 19 18 18 18 45 0 28-18 47-19 19-46 19-27 0-47-19-18-19-18-47 0-27 18-45 20-19 47-19m165-462l-33-75-231 101-231-101-32 75 161 70-161 71 32 75 231-101 231 101 33-75-162-71 162-70m-423 238l-135 59-193-85-28 63 135 59-135 59 28 64 193-85 46 19q18-33 41-57l-1 0 1 0 48-42 0-54m60 224q27 0 47 19 18 18 18 45 0 28-18 47-20 19-47 19-27 0-46-19-18-19-18-47 0-27 18-45 19-19 46-19m-277 310q-23 0-39-16-16-16-16-39 0-23 16-39 16-16 39-16 23 0 38 16 16 16 16 39 0 23-16 39-15 16-38 16m-22-234q-47 28-75 75-28 48-28 104 0 86 61 147 60 61 146 61 67 0 121-38 52-37 74-97-39-15-69-38-17 20-42 20-23 0-39-16-16-16-16-39 0-29 23-45-41-67-41-146l6-58-121 0 0 70" horiz-adv-x="1030" />

<glyph glyph-name="disguise" unicode="&#xe81b;" d="M597-62l188 0 0 710-163 75-63-89-118 0-63 92-163-74 0-714 188 0 38 645 117 0 39-645m359 912q18 0 31-12 13-14 13-32l0-912q0-18-13-31-13-13-31-13l-912 0q-18 0-31 13-13 13-13 31l0 912q0 18 13 32 13 12 31 12l113 0 108-76 164 76 139 0 217-127 74 127 97 0" horiz-adv-x="1000" />

<glyph glyph-name="distraction" unicode="&#xe81c;" d="M644 117q-11-12-30-12-20 0-33 15-13 14-11 33 1 19 14 30 57 53 89 123 30 71 30 147 0 124-73 220-11 15-8 34 2 18 17 30 14 11 33 8 19-2 30-17 91-120 91-275 0-95-39-183-38-89-110-153m174-89q-13-11-31-11-19 0-33 14-12 13-12 32 1 19 14 31 75 71 116 164 39 92 39 195 0 90-31 173-31 83-89 151-12 13-10 31 2 20 16 32 13 12 31 10 19-2 31-16 69-78 105-177 36-99 36-204 0-120-47-230-47-110-135-195m-640-178q-74 0-125 52-53 53-53 126 0 19 13 32 14 13 32 13 18 0 32-13 13-13 13-32 0-36 26-62 26-26 62-26 37 0 63 26 25 26 25 62 0 88 22 132 16 33 70 80 57 51 97 99 41 47 41 122 0 84-60 143-59 60-143 60-85 0-144-60-59-59-59-143 0-18-13-32-14-13-32-13-18 0-32 13-13 13-13 32 0 121 86 207 86 85 207 85 120 0 206-85 85-86 85-207 0-108-61-181-39-46-106-107-40-36-49-55-12-25-12-90 0-73-53-126-51-52-125-52m85 328q-10-10-25-10-16 0-27 10-10 11-10 27 0 15 11 26 11 12 11 29 0 17-11 29-13 13-29 13l-37 0 0 151q0 60 42 103 43 42 103 42 61 0 102-42 43-43 43-103 0-15-10-26-11-11-27-11-15 0-26 11-10 11-10 26 0 29-22 50-20 22-50 22-29 0-50-22-22-21-22-50l0-84q34-11 56-41 22-30 22-68 0-49-34-82" horiz-adv-x="1000" />

<glyph glyph-name="download" unicode="&#xe81d;" d="M515 415l162 0-311-315-308 315 161 0 0 435 296 0 0-435m145-565l-588 0q-29 0-50 22-22 21-22 51 0 32 22 53 21 21 50 21l588 0q31 0 52-21 21-21 21-53 0-30-21-51-21-22-52-22" horiz-adv-x="733" />

<glyph glyph-name="edit" unicode="&#xe81e;" d="M968 750q32-32 32-77 0-46-32-78l-32-32-223 224 32 31q33 32 78 32 45 0 77-32l68-68m-659-667l-75 75 451 450 74-75-450-450m-261-91l95-95-143-47 48 142m136-80l-121 122 62 184 243-243-184-63m661 536l-451-450-59 59 451 451 59-60m75 78l-50-49-243 243 50 50 243-244m-261 109l-451-451-59 60 451 450 59-59" horiz-adv-x="1000" />

<glyph glyph-name="elevation" unicode="&#xe81f;" d="M519 850q19 0 31-12 13-14 13-32l0-912q0-18-13-31-12-13-31-13l-475 0q-18 0-31 13-13 13-13 31l0 912q0 18 13 32 13 12 31 12l475 0m93-273l0 95 195 178 194-177 0-96-156 142 0-260-76 0 0 260-157-142m389-548l-194-179-195 178 0 96 157-143 0 260 76 0 0-260 156 143 0-95m-633 664q0 36-25 61-25 25-60 25-37 0-61-25-25-25-25-61 0-35 25-60 24-25 61-25 35 0 60 25 25 25 25 60m-215-110q-27 0-48-20-19-20-19-49l0-219q0-14 10-24 9-10 24-10 14 0 23 10 10 10 10 24l0 151 30 0 0-483q0-16 12-29 13-12 29-12 18 0 30 12 12 13 12 29l0 302 32 0 0-302q0-16 12-29 12-12 29-12 18 0 30 12 13 13 13 29l0 483 28 0 0-151q0-14 10-24 10-10 23-10 15 0 25 10 10 10 10 24l0 219q0 29-20 49-20 20-48 20l-257 0" horiz-adv-x="1001" />

<glyph glyph-name="elusive" unicode="&#xe820;" d="M681 390q16 0 27-12 12-12 12-28 0-16-12-27-11-12-27-12l-112 0q-10-18-28-28-19-11-41-11-32 0-56 22-23 24-23 56 0 22 11 41 11 18 29 28l0 211q0 17 12 28 11 12 27 12 17 0 28-12 12-11 12-28l0-211q19-10 29-29l112 0m-137-326l0-74q49 6 94 24 44 19 83 49l2 2 33 29 28 32 39 59q25 50 35 106l1 15-72 0 0 88 72 0q-6 50-24 94-27 66-79 119-53 52-118 78-45 19-95 25l-44 3-42-3q-50-6-95-25-66-26-119-78-40-40-64-87-15-27-24-57l-9-34-6-35 74 0 0-88-75 0q12-100 75-180l1 0 28-32 33-29-1 0q81-64 181-75l0 74 88 0m456 330l0-88-53 0q-17-160-130-273-113-113-273-130l0-53-88 0 0 53q-159 16-273 130-114 113-130 273l-53 0 0 88 53 0q15 159 130 274 114 114 273 129l0 53 88 0 0-53q160-16 273-129 114-115 130-274l53 0" horiz-adv-x="1000" />

<glyph glyph-name="emote" unicode="&#xe821;" d="M642-150q-22 0-38 14l-170 150q-14 14-18 34l-29 171-70-11-122-317q-6-17-21-27-14-10-33-10l-20 5q-22 7-31 29-9 21 0 43l142 370-32 126-115-66q-13-7-28-7-15 0-29 7-28 16-28 49l0 236q0 24 17 40 17 16 40 16 23 0 40-16 16-16 16-40l0-138 253 135 28 8 15-2 143-42q32-9 40-40l57-204q6-22-6-43-12-21-33-26l-16-2q-19 0-34 11-15 11-20 29l-48 173-41 10 73-429 155-137q18-17 19-39 1-23-14-41-18-19-42-19m-407 1000q41 0 70-29 29-29 29-70 0-41-29-70-29-29-70-29-41 0-70 29-29 29-29 70 0 41 29 70 29 29 70 29" horiz-adv-x="698" />

<glyph glyph-name="escalation" unicode="&#xe822;" d="M426 439q-22 0-36 15-14 15-14 35 0 21 14 36 14 14 36 14 19 0 33-14 16-15 16-36 0-20-16-35-14-15-33-15m275-350l-123 53 123 54-25 56-176-76-175 76-26-56 123-54-123-53 26-57 175 75 176-75 25 57m-201 761q207 0 353-147 147-146 147-353 0-207-147-354-146-146-353-146-207 0-354 146-146 147-146 354 0 207 146 353 147 147 354 147m75-411q-21 0-35 15-14 15-14 35 0 21 14 36 14 14 35 14 20 0 35-14 15-15 15-36 0-20-15-35-15-15-35-15m-75 239q-79 0-134-56-55-55-55-133 0-50 27-94 24-44 67-68l0-64 189 0 0 64q44 24 68 68 27 44 27 94 0 78-56 133-55 56-133 56" horiz-adv-x="1000" />

<glyph glyph-name="exit" unicode="&#xe823;" d="M0 813q0 15 10 26 12 11 26 11l852 0q15 0 25-11 10-11 10-26l0-237-85 0 0 187-751 0 0-826 751 0 0 223 85 0 0-273q0-15-10-26-10-11-25-11l-852 0q-14 0-26 11-10 11-10 26l0 926m408-784l234 257-467 0 0 124 467 0-233 258 156 0 291-319-291-320-157 0" horiz-adv-x="923" />

<glyph glyph-name="explosive" unicode="&#xe824;" d="M563 850l138 0-232-303 94 303m-94-684l531 418 0-106-531-312m396 684l135 0 0-138-597-470 462 608m-250-822l157 27 0-116-71 0-86 89m-71 76l456 324 0-186-456-138m-288 254l22 492 142 0-164-492m48-8l99 158 48-104-111-109-36 55m-164 101l-76 96 76 104 63-46-63-154m284-391l88-19q-24-83-92-137-70-54-159-54-108 0-184 77-77 76-77 185 0 85 49 153 49 66 127 93l0-116 85 0-43-107 0-102 113 27 47-63 46 63" horiz-adv-x="1000" />

<glyph glyph-name="extended-mag" unicode="&#xe825;" d="M461 791l-358 0 0-114 358 0 0 114m-358-296l358 0 0 123-358 0 0-123m417 17l0-39 16 0q15-9 29-16l35-14q33-16 33-30 0-15-33-30l-35-15-29-16-16 0 0-39 16 0 29-16 35-14q33-16 33-30 0-14-33-30l-35-15q-14-8-29-15l-16 0 0-40 16 0 64-30q33-15 33-30 0-14-33-30l-35-14q-14-8-29-16l-16 0 0-51 45 0 0-88q0-18-13-31-13-13-31-13l-477 0q-18 0-31 13-13 13-13 31l0 88 45 0 0 839q0 12 8 21 9 8 21 8l416 0q13 0 21-8 9-9 9-21l0-28 16 0 64-30q33-17 33-30 0-15-33-31l-35-14-29-16-16 0 0-39 16 0 29-17 35-13q33-17 33-31 0-22-68-44l-29-16-16 0" horiz-adv-x="633" />

<glyph glyph-name="extended-mag-1" unicode="&#xe826;" d="M487 258l0-233 90 0 0 368-72 0q-7-37-33-55-27-17-64-19l0-61 79 0m211 533l-357 0 0-114 357 0 0 114m-357-296l357 0 0 123-357 0 0-123m417 17l0-39 15 0q15-9 30-16l35-14q33-16 33-30 0-15-33-30l-35-15-30-16-15 0 0-39 15 0 30-16 35-14q33-16 33-30 0-14-33-30l-35-15q-15-8-30-15l-15 0 0-40 15 0 65-30q33-15 33-30 0-14-33-30l-35-14q-15-8-30-16l-15 0 0-51 45 0 0-88q0-18-14-31-12-13-31-13l-476 0q-19 0-31 13-13 13-13 31l0 88 45 0 0 839q0 12 8 21 8 8 21 8l416 0q12 0 20-8 10-9 10-21l0-28 15 0 65-30q33-17 33-30 0-15-33-31l-35-14-30-16-15 0 0-39 15 0 30-17 35-13q33-17 33-31 0-22-68-44l-30-16-15 0m-686-334l-72 0 0 55 72 0 0 77 59 0 0-77 72 0 0-55-72 0 0-76-59 0 0 76" horiz-adv-x="871" />

<glyph glyph-name="extended-mag-2" unicode="&#xe827;" d="M698 791l-357 0 0-114 357 0 0 114m-357-296l357 0 0 123-357 0 0-123m33-463l284 0 0 74-159 0 0 1 22 19 24 19 27 18 25 20 23 20 19 22 14 28 5 35q0 24-10 45-8 21-25 37l-42 26-59 8q-44 0-73-13-29-14-44-37-13-18-19-39-6-22-6-53l84 0 4 31 13 23q13 16 39 16 23 0 35-13 13-13 13-35 0-13-7-24l-18-21q-21-19-50-39l-54-42-26-24-20-27-13-34-6-41m384 480l0-39 15 0q15-9 30-16l35-14q33-16 33-30 0-15-33-30l-35-15-30-16-15 0 0-39 15 0 30-16 35-14q33-16 33-30 0-14-33-30l-35-15q-15-8-30-15l-15 0 0-40 15 0 65-30q33-15 33-30 0-14-33-30l-35-14q-15-8-30-16l-15 0 0-51 45 0 0-88q0-18-14-31-12-13-31-13l-476 0q-19 0-31 13-13 13-13 31l0 88 45 0 0 839q0 12 8 21 8 8 21 8l416 0q12 0 20-8 10-9 10-21l0-28 15 0 65-30q33-17 33-30 0-15-33-31l-35-14-30-16-15 0 0-39 15 0 30-17 35-13q33-17 33-31 0-22-68-44l-30-16-15 0m-686-334l-72 0 0 55 72 0 0 77 59 0 0-77 72 0 0-55-72 0 0-76-59 0 0 76" horiz-adv-x="871" />

<glyph glyph-name="extended-mag-3" unicode="&#xe828;" d="M698 791l-357 0 0-114 357 0 0 114m-357-296l357 0 0 123-357 0 0-123m189-468l55 6q26 7 46 21 20 14 32 36 11 22 11 51 0 37-17 59-19 22-49 31l0 1 40 27q16 18 16 46 0 23-10 43l-28 33q-18 13-43 20l-55 7-60-9q-26-9-45-26-18-15-27-39-10-22-10-50l83 0q2 24 15 40 14 17 44 17 22 0 35-12 12-11 12-30 0-21-15-31-16-11-41-11l-20 0 0-63 22 0q31 0 47-12 15-12 15-36 0-23-15-37-14-14-42-14-34 0-50 18-15 20-17 49l-85 0q0-64 41-100 19-17 48-26l67-9m228 485l0-39 15 0q15-9 30-16l35-14q33-16 33-30 0-15-33-30l-35-15-30-16-15 0 0-39 15 0 30-16 35-14q33-16 33-30 0-14-33-30l-35-15q-15-8-30-15l-15 0 0-40 15 0 65-30q33-15 33-30 0-14-33-30l-35-14q-15-8-30-16l-15 0 0-51 45 0 0-88q0-18-14-31-12-13-31-13l-476 0q-19 0-31 13-13 13-13 31l0 88 45 0 0 839q0 12 8 21 8 8 21 8l416 0q12 0 20-8 10-9 10-21l0-28 15 0 65-30q33-17 33-30 0-15-33-31l-35-14-30-16-15 0 0-39 15 0 30-17 35-13q33-17 33-31 0-22-68-44l-30-16-15 0m-686-334l-72 0 0 55 72 0 0 77 59 0 0-77 72 0 0-55-72 0 0-76-59 0 0 76" horiz-adv-x="871" />

<glyph glyph-name="extended-mag-4" unicode="&#xe829;" d="M530 178l-102 0 0 1 100 124 2 0 0-125m0-69l0-81 88 0 0 81 52 0 0 69-52 0 0 220-90 0-169-205 0-84 171 0m168 682l-357 0 0-114 357 0 0 114m-357-296l357 0 0 123-357 0 0-123m417 17l0-39 15 0q15-9 30-16l35-14q33-16 33-30 0-15-33-30l-35-15-30-16-15 0 0-39 15 0 30-16 35-14q33-16 33-30 0-14-33-30l-35-15q-15-8-30-15l-15 0 0-40 15 0 65-30q33-15 33-30 0-14-33-30l-35-14q-15-8-30-16l-15 0 0-51 45 0 0-88q0-18-14-31-12-13-31-13l-476 0q-19 0-31 13-13 13-13 31l0 88 45 0 0 839q0 12 8 21 8 8 21 8l416 0q12 0 20-8 10-9 10-21l0-28 15 0 65-30q33-17 33-30 0-15-33-31l-35-14-30-16-15 0 0-39 15 0 30-17 35-13q33-17 33-31 0-22-68-44l-30-16-15 0m-686-334l-72 0 0 55 72 0 0 77 59 0 0-77 72 0 0-55-72 0 0-76-59 0 0 76" horiz-adv-x="871" />

<glyph glyph-name="eye-tracking" unicode="&#xe82a;" d="M1710 583l7-25q36-146-42-274-79-128-224-164-96-24-189 0-56 13-150 59-72 35-106 43l-109 3q-55-16-95-56-28-26-72-91-60-84-101-122-71-66-168-92-143-40-274 35-131 73-170 217l-5 26q-36 145 41 274 78 128 223 162 93 23 187 2 54-13 149-58l111-43 108-4q51 16 93 58l75 90q61 83 104 124 71 63 163 89 144 40 274-35 131-73 170-218" horiz-adv-x="1728" />

<glyph glyph-name="fast-reload" unicode="&#xe82b;" d="M135 42l363 0 0 752-363 0 0-752m423 87l15 0 60-235q0-18-13-31-12-13-32-13l-543 0q-19 0-32 13-13 13-13 31l60 235 15 0 0 692q0 12 9 21l21 8 423 0q12 0 20-8 10-9 10-21l0-692" horiz-adv-x="633" />

<glyph glyph-name="failed" unicode="&#xe82c;" d="M683 350l317-317-183-183-317 317-317-317-183 183 317 317-317 317 183 183 317-317 317 317 183-183-317-317" horiz-adv-x="1000" />

<glyph glyph-name="fast-reload-2" unicode="&#xe82d;" d="M717 129l16 0 60-235q0-18-14-31-12-13-31-13l-544 0q-19 0-31 13-14 13-14 31l60 235 15 0 0 692q0 12 9 21l21 8 423 0q12 0 21-8 9-9 9-21l0-692m-423-87l363 0 0 752-363 0 0-752m39 133l5 42 14 33 20 28 26 24q25 21 53 41 29 20 51 40l17 20q7 11 7 25 0 21-13 35-11 12-35 12-25 0-39-16l-12-22-4-32-85 0q0 32 6 53 6 21 19 40 15 22 45 36 29 14 72 14l59-9 42-26q17-15 26-36 9-22 9-46l-5-34-13-29-20-22-23-20-25-19-27-19-24-19-21-19 0-1 159 0 0-74-284 0m-279 177l-51 51 40 39 50-51 55 54 41-42-54-54 51-51-39-39-51 51-54-54-42 42 54 54" horiz-adv-x="793" />

<glyph glyph-name="fast-reload-3" unicode="&#xe82e;" d="M717 129l16 0 60-235q0-18-14-31-12-13-31-13l-544 0q-19 0-31 13-14 13-14 31l60 235 15 0 0 692q0 12 9 21l21 8 423 0q12 0 21-8 9-9 9-21l0-692m-235 31l-68 9q-28 9-47 26-41 36-41 100l85 0q2-29 17-48 15-19 50-19 28 0 42 15 15 14 15 36 0 24-16 36-16 13-46 13l-22 0 0 62 20 0q25 0 41 11 15 11 15 32 0 18-13 30-12 11-35 11-29 0-43-16-13-16-15-40l-83 0q0 27 10 50 9 23 27 39 18 16 44 26l61 8 55-7q25-6 43-20 18-13 28-32 10-20 10-44 0-28-16-45-16-18-40-28l0-1q30-9 48-31 18-21 18-59 0-29-12-51-11-21-31-35-20-15-46-21l-55-7m-188-118l363 0 0 752-363 0 0-752m-240 310l-51 51 40 39 50-51 55 54 41-42-54-54 51-51-39-39-51 51-54-54-42 42 54 54" horiz-adv-x="793" />

<glyph glyph-name="fast-reload-4" unicode="&#xe82f;" d="M717 129l16 0 60-235q0-18-14-31-12-13-31-13l-544 0q-19 0-31 13-14 13-14 31l60 235 15 0 0 692q0 12 9 21l21 8 423 0q12 0 21-8 9-9 9-21l0-692m-226 119l-171 0 0 83 169 205 89 0 0-220 53 0 0-68-53 0 0-81-87 0 0 81m0 68l0 126-2 0-101-124 0-2 103 0m-197-274l363 0 0 752-363 0 0-752m-240 310l-51 51 40 39 50-51 55 54 41-42-54-54 51-51-39-39-51 51-54-54-42 42 54 54" horiz-adv-x="793" />

<glyph glyph-name="favorite-contracts" unicode="&#xe830;" d="M991-67q17-34 2-59-16-24-55-24l-877 0q-38 0-54 24-15 25 1 59l449 883q19 34 42 34 26 0 43-34l449-883m-289 275q0-84-59-143-59-59-144-59-82 0-142 59-59 59-59 143 0 84 59 143 60 60 142 60 85 0 144-60 59-59 59-143m42 0q0 102-71 173-72 72-174 72-100 0-172-72-72-71-72-173 0-101 72-173 72-72 172-72 102 0 174 72 71 72 71 173m-93 0q0 63-45 107-44 44-107 44-62 0-105-44-45-44-45-107 0-62 45-107 43-43 105-43 63 0 107 43 45 45 45 107" horiz-adv-x="1000" />

<glyph glyph-name="featured" unicode="&#xe831;" d="M525 850l124-382 402 0-325-236 124-382-325 236-324-236 124 382-325 236 401 0 124 382" horiz-adv-x="1051" />

<glyph glyph-name="fiber-wire" unicode="&#xe832;" d="M723 567q0 92-65 158-65 65-158 65-92 0-157-65-66-66-66-158 0-92 66-159 65-65 157-65 93 0 158 65 65 67 65 159m233-183q17 0 31-13 13-13 13-31l0-446q0-18-13-31-14-13-31-13l-58 0q-19 0-31 13-14 13-14 31l0 198q-62 3-106 47-49 49-49 116 0 68 49 116l160 161q31 31 31 73 0 43-31 74l-3 4q-12 15-46 35-65 38-167 57 42-40 67-92 24-56 24-116 0-117-83-200-82-83-199-83-117 0-199 83-83 83-83 200 0 60 25 116 24 52 66 92-101-19-167-57-34-20-47-35l-2-4q-31-31-31-74 0-42 31-73l160-161q48-48 48-116 0-67-48-116-44-44-105-47l0-198q0-18-14-31-13-13-31-13l-59 0q-18 0-31 13-13 13-13 31l0 446q0 18 13 31 13 13 31 13l59 0q18 0 31-13 14-13 14-31l0-189q37 2 63 31 32 29 32 73 0 43-32 74l-160 160q-48 49-48 116 0 66 47 115 32 38 107 71 135 59 342 59l1 0q208 0 343-59 75-33 106-71 48-49 48-115 0-67-49-116l-160-160q-30-31-30-74 0-44 30-73 27-29 65-31l0 189q0 18 14 31 12 13 31 13l58 0" horiz-adv-x="1000" />

<glyph glyph-name="fixed" unicode="&#xe833;" d="M606 262l-65-66-153 11-55 15q58-39 148-73-133-91-280-94-63-92-117-188l-84-17q231 356 488 616 170 170 330 279l12 8q-90-46-217-148-252-201-489-505 13 123 77 254 128 262 398 372l30 10q11-42 27-73-3 31 3 82l129 36q80 28 131 69l-5-42q-10-55-36-121-55-23-107-34l-41-6q48-17 123-19-40-83-92-162l-140 7-51 12q57-38 155-70-50-72-119-153" horiz-adv-x="919" />

<glyph glyph-name="frisk" unicode="&#xe834;" d="M877 618q13-5 22-18 9-12 9-27 0-20-14-34-14-14-34-14l-275 0 0-626q0-21-14-35-15-14-35-14-20 0-34 14-15 14-15 35l0 352-66 0 0-352q0-21-14-35-15-14-35-14-20 0-34 14-15 14-15 35l0 626-275 0q-20 0-34 14-14 14-14 34 0 15 9 27 8 13 22 18l15 3 815 0 16-3m-423 32q-41 0-71 30-30 29-30 70 0 42 30 70 30 30 71 30 41 0 70-30 29-28 29-70 0-41-29-70-29-30-70-30" horiz-adv-x="908" />

<glyph glyph-name="full-auto" unicode="&#xe835;" d="M1000 296q0-20-102-43l-101-19-40-23-294 0 0 169 294 0 40-22 101-20q102-22 102-42m-457-343l10 4 5 10 0 165 102 0 0-194q0-36-26-62-25-26-62-26l-484 0q-36 0-62 26-26 26-26 62l0 824q0 36 26 62 26 26 62 26l484 0q37 0 62-26 26-26 26-62l0-115 92 0-144-204-145 204 95 0 0 86-5 10-10 4-425 0-10-4-5-10 0-766 5-10 10-4 425 0m-173 257l0 171 64 0 0-171-64 0" horiz-adv-x="1000" />

<glyph glyph-name="game" unicode="&#xe836;" d="M233 380q18 0 31-13 13-13 13-31l0-442q0-18-13-31-13-13-31-13l-189 0q-18 0-31 13-13 13-13 31l0 442q0 18 13 31 13 13 31 13l189 0m723 273q18 0 32-14 12-12 12-31l0-714q0-18-12-31-14-13-32-13l-188 0q-18 0-31 13-13 13-13 31l0 714q0 19 13 31 13 14 31 14l188 0m-367 197q19 0 31-12 13-14 13-32l0-912q0-18-13-31-12-13-31-13l-188 0q-18 0-31 13-13 13-13 31l0 912q0 18 13 32 13 12 31 12l188 0" horiz-adv-x="1000" />

<glyph glyph-name="game-hud" unicode="&#xe837;" d="M103 86l0-133 466 0 259 423-165 101 141 232 93-57 0 95-794 0 0-429 230-140-105-169-125 77m809 764q36 0 62-26 26-26 26-62l0-824q0-36-26-62-26-26-62-26l-824 0q-35 0-62 26-26 26-26 62l0 824q0 36 26 62 26 26 62 26l824 0m-319-479q23-38 11-82-11-42-49-66-38-22-82-11-42 11-65 49-23 38-11 81 11 43 49 66 38 23 81 12 42-11 66-49m-171 76q-33-19-56-56l-50 236 182-157q-39-1-76-23" horiz-adv-x="1000" />

<glyph glyph-name="gear" unicode="&#xe838;" d="M167 482l-49-57q-45-70-20-139 26-73 70-34l37 53q22-10 43-19l3-53-140-81q-45-27-70-74-8 8-12 22-31 128-29 241 3 178 92 262l76 0-1-121m691 31q38 0 70-18 34-18 53-52 29-50 14-107-16-56-67-87l-653-381-20-9-31-8-22-1-13 1-19 2-17 6-33 18-17 15-8 10-4 4-9 14 0 1-8 14-7 22-2 13-1 2-1 17 0 1 1 16 0 2 3 15 0 1 11 33q21 37 56 57l654 381q32 18 70 18m-92 20l-59-34q-427 136-632 341 155 25 339-11 224-43 534-182 74-34 43-145-54 56-133 56-50 0-92-25m-19 113q39-7 41 4 5 10-29 31-32 20-83 39l-88 25q-40 6-44-4-2-10 31-30 33-20 83-39 50-19 89-26" horiz-adv-x="1000" />

<glyph glyph-name="graphics" unicode="&#xe839;" d="M924 744l-818 0 0-596 818 0 0 596m26 106q33 0 57-23 22-23 22-57l0-650q0-33-22-56-23-23-57-23l-870 0q-34 0-56 23-24 24-24 56l0 650q0 33 24 57 23 23 56 23l870 0m-656-390q13 0 21-10 9-8 9-21l0-188q0-13-9-21-8-9-21-9l-70 0q-12 0-21 9-9 8-9 21l0 188q0 13 9 21 9 10 21 10l70 0m340 128q13 0 20-10 10-8 10-20l0-317q0-13-10-21-7-9-20-9l-70 0q-12 0-21 9-10 8-10 21l0 317q0 12 10 20 9 10 21 10l70 0m-173 91q13 0 21-8 9-10 9-22l0-408q0-13-9-21-8-9-21-9l-70 0q-12 0-20 9-10 8-10 21l0 408q0 12 10 22 8 8 20 8l70 0m344-91q13 0 23-10 7-8 7-20l0-317-7-21q-10-9-23-9l-68 0q-12 0-22 9-9 8-9 21l0 317q0 12 9 20 10 10 22 10l68 0m-114-738l-352 0q-15 0-26 10-11 11-11 27l0 63q0 16 11 27 11 10 26 10l352 0q15 0 27-10 10-11 10-27l0-63q0-16-10-27-12-10-27-10" horiz-adv-x="1029" />

<glyph glyph-name="hail-storm" unicode="&#xe83a;" d="M654 804l-121-121-45 45 121 122 45-46m243-763l58-86q56-89 42-103-14-14-103 42l-86 59-45 13-209 209 120 120 209-209 14-45m0 487l58-85q56-90 42-103-14-14-103 42l-86 59-45 12-209 210 120 120 209-210 14-45m-243-211l-121-122-45 46 121 121 45-45m-487 487l-122-121-45 45 122 122 45-46m242-763l59-86q55-89 41-103-13-14-102 42l-86 59-45 13-209 209 120 120 209-209 13-45m0 487l59-85q55-90 41-103-13-14-102 42l-86 59-45 12-209 210 120 120 209-210 13-45m-242-211l-122-122-45 46 122 121 45-45" horiz-adv-x="999" />

<glyph glyph-name="hidden" unicode="&#xe83b;" d="M115-13l553 0q-55-64-124-100-74-37-152-37-79 0-153 37-69 36-124 100m650 338l18-17 0-22q0-118-64-228l0 18-664 0q-55 101-55 210l1 27 12 12 125-125 126 125 125-125 126 125 125-125 125 125m-747 122q17 81 53 156l641 0q36-75 53-153l-125-124-125 124-126-124-125 124-126-124-120 121m641 245l-535 0q54 74 121 115 71 43 147 43 76 0 146-43 67-41 121-115" horiz-adv-x="783" />

<glyph glyph-name="high-pressure" unicode="&#xe83c;" d="M5251 850l27-47 0-902-27-51-82 0 0 55-106 0-59-55-12 0 0 1000 12 0 59-55 106 0 0 55 82 0m-3843-157l765 0 0 32 94 0 0-32 55 0 0 32 133 0 267 125 2133 0 0-1000-2133 0-267 129-133 0 0 32-55 0 0-32-94 0 0 32-765 0-777 137-478 122-153 62 0 40 153 62 478 122 777 137" horiz-adv-x="5278" />

<glyph glyph-name="hm-added-to-list" unicode="&#xe83d;" d="M119 190q30-69 74-118l-193 0 0 118 119 0m-32 159l5-57-92 0 0 118 92 0-5-61m111 281q-50-55-76-117l-121 0 0 117 197 0m303-696q83 0 166 34l336 0 0-118-1003 0 0 118 336 0q78-34 165-34m308 138q50 55 74 118l120 0 0-118-194 0m106 277l-4 61 92 0 0-118-91 0 3 57m88 501l0-117-21 0 10-32q8-37-10-71l21 0 0-117-102 0-65-95 8-69q0-142-100-242-99-101-240-101-142 0-243 101-100 99-100 242 0 141 100 242 101 100 243 100 62 0 123-23l41 59-9 6q-74 31-158 31-79 0-158-31l-343 0 0 117 1003 0m-505-520l-134 135-8 6-2 0-7 0-4 0-3 0-7-6-67-66-7-16q0-11 6-17l225-225 3-1 5-4 2-1 6-2 15 0 7 3 4 4 4 1 6 7 359 521q6 7 4 16-2 10-10 16l-76 52-6 3-2 0-6 2-6 0-3-2-1-1-2-2-2-1-293-422" horiz-adv-x="1003" />

<glyph glyph-name="ica" unicode="&#xe83e;" d="M549 223q14 0 24 10 10 10 10 23 0 13-10 22-10 10-24 10-13 0-23-10-9-9-9-22 0-13 9-23 10-10 23-10m441-291q18-33 3-58-15-24-54-24l-878 0q-39 0-53 24-16 25 1 58l449 884q17 34 42 34 24 0 43-34l447-884m-552 218q-29 16-45 44-17 29-17 62 0 43 28 77l-1 0 0 87 49-47 48 47 48-47 49 47 0-87-1 0q28-34 28-77 0-33-16-62-17-28-45-44l0-41-125 0 0 41m62 542l-89-175 178 0-89 175m51-647l82-35-17-37-116 50-116-50-16 37 81 35-81 36 16 37 116-50 116 50 17-37-82-36m-343 70l-89-173 176 0-87 173m242 108q14 0 24 10 9 10 9 23 0 13-9 22-10 10-24 10-13 0-23-10-9-9-9-22 0-13 9-23 10-10 23-10m308-39l-137 271-242 0-136-271 122-242 270 0 123 242m-53-242l176 0-88 173-88-173" horiz-adv-x="1000" />

<glyph glyph-name="info" unicode="&#xe83f;" d="M385 805q46-45 46-110 0-65-46-109-45-46-110-46-64 0-109 46-46 44-46 109 0 65 46 110 45 45 109 45 65 0 110-45m43-337l0-618-308 0 0 510-120 0 0 108 428 0" horiz-adv-x="431" />

<glyph glyph-name="intel" unicode="&#xe840;" d="M39 446q41 40 97 40 56 0 95-40 40-40 40-96 0-56-40-95-38-40-95-40-57 0-97 40-39 39-39 95 0 56 39 96m557-364q40-39 40-96 0-57-40-96-40-40-96-40-56 0-96 40-40 40-40 96 0 56 40 96 40 40 96 40 56 0 96-40m-96 404q56 0 96-40 40-40 40-96 0-30-13-56l184-185q31 13 57 13 57 0 97-40 40-40 40-96 0-56-40-96-40-40-97-40-57 0-96 40-40 40-40 96 0 26 13 57l-185 184q-26-12-56-12-30 0-56 12l-185-184q12-28 12-57 0-57-40-96-38-40-95-40-57 0-97 40-39 40-39 96 0 56 39 96 41 40 97 40 27 0 56-13l184 185q-12 29-12 56 0 26 12 56l-184 185q-29-13-56-13-56 0-97 40-39 39-39 96 0 56 39 96 40 40 97 40 57 0 95-40 40-40 40-96 0-29-12-57l185-183q28 12 56 12m0 364q56 0 96-40 40-40 40-96 0-29-13-57l184-184q30 13 57 13 57 0 97-40 40-40 40-96 0-56-40-95-40-40-97-40-57 0-96 40-40 39-40 95 0 27 13 56l-185 185q-29-13-56-13-56 0-96 40-40 39-40 96 0 56 40 96 40 40 96 40m364 0q57 0 97-40 40-40 40-96 0-57-40-96-40-40-97-40-56 0-96 40-40 39-40 96 0 56 40 96 39 40 96 40" horiz-adv-x="1001" />

<glyph glyph-name="inventory" unicode="&#xe841;" d="M90 541l0-421 365-158 0 422-365 157m456-579l364 158 0 421-364-157 0-422m-46 794l-342-147 342-147 342 147-342 147m499-136l2-11 0-518q0-14-7-24-8-12-21-17l-463-199-2 0-8-1-8 1-2 0-463 199q-27 11-27 41l0 518 1 11 1 1 3 9 1 2 5 8 1 1 7 5 1 1 1 0 6 3 455 197q18 6 36 0l455-197 6-3 1 0 1-1 7-5 1-1 5-8 1-2 3-9 1-1" horiz-adv-x="1001" />

<glyph glyph-name="ioi-account" unicode="&#xe842;" d="M1803 755l-149 0 0 95 149 0 0-95 0-905-149 0 0 756 149 149m-1652 0l-151 0 0 95 151 0 0-95 0-905-151 0 0 756 151 149m1159-406l-405 406-406-406 406-405 405 405m-291-499l-231 0-417 417 0 164 419 419 229 0 419-419 0-164-419-417" horiz-adv-x="1803" />

<glyph glyph-name="key" unicode="&#xe843;" d="M856 578q25 25 25 61 0 34-25 59-25 26-61 26-35 0-59-26-25-25-25-59 0-36 25-61 24-25 59-25 36 0 61 25m-334 189q83 83 201 83 118 0 202-83 83-84 83-201 0-117-83-201-60-59-142-77-81-18-158 11l-80-78-105 25-36-36 11-116-97 0 5-93-110 21 28-100-72-72-169 0 0 162 456 456q-28 77-11 157 18 82 77 142" horiz-adv-x="1008" />

<glyph glyph-name="knock-down" unicode="&#xe844;" d="M1000 198l-4-5q-33-1-56-25-24-25-24-59 0-20 7-41 10-24 21-35l43 0 10-3 3-10 0-157-3-9-10-4-277 0q-6 0-9 4l-3 9 0 157 3 10q3 3 9 3l43 0q12 11 20 35l7 41q0 35-24 60-25 24-59 24l-40 0 0 223 40 0q34 0 59 24 24 25 24 60 1 107-64 223l-64 95 33 32 49-31q59-41 109-89 157-153 157-314l0-218m-384-4l-616 0 0 222 616 0 0-222" horiz-adv-x="1000" />

<glyph glyph-name="language" unicode="&#xe845;" d="M1000 688l0-442q-87 47-197 40-66-4-198-40-131-35-197-39-110-8-197 39l0 442q87-46 197-39 65 4 197 39 132 36 198 40 110 8 197-40m-781 55l-58 0 0-893-103 0 0 893-58 0 0 32q0 31 22 53 22 22 54 22l68 0q31 0 53-22 22-22 22-53l0-32" horiz-adv-x="1000" />

<glyph glyph-name="leaderboard" unicode="&#xe846;" d="M364-33l0 69-148 0 0 1 21 18 69 54 23 18 17 22 13 25 4 32q0 23-8 43-8 20-24 35-17 15-40 24l-53 9q-41 0-67-14-28-14-42-34l-18-37-6-50 79 0 4 30 11 20q12 15 37 15 22 0 33-11 11-14 11-32 0-13-6-23l-17-20q-20-18-47-36l-49-40-24-22-18-26-13-31-5-39 263 0m291 424l0 344-66 0q-6-34-32-52-23-16-58-18l0-57 72 0 0-217 84 0m429-368q11 20 11 47 0 35-17 55-16 21-44 29l0 1q22 9 37 26 14 15 14 42 0 23-9 40-8 17-26 31-16 13-39 20l-51 6-57-8q-25-9-41-25-16-15-26-36-9-24-9-46l78 0q2 23 14 37 12 15 40 15 21 0 32-11 12-10 12-28 0-21-14-29-14-11-38-11l-19 0 0-58 20 0q27 0 44-11 14-11 14-34 0-23-13-34-14-13-39-13-33 0-47 16-14 17-16 45l-78 0q0-60 37-93 17-15 45-24l61-8 52 6 43 19 29 34m64 391q22 0 37-15 16-16 16-39l0-469q0-17-12-29-12-12-28-12l-1121 0q-17 0-28 12-12 12-12 29l0 469q0 23 15 39 16 15 38 15l312 0 0 383q0 22 16 37 15 16 37 16l365 0q22 0 37-16 16-15 16-37l0-383 312 0" horiz-adv-x="1201" />

<glyph glyph-name="leaderboard-friends" unicode="&#xe847;" d="M1000 717q0-56-39-95-39-39-94-39-55 0-94 39-39 39-39 95 0 55 39 94 39 39 94 39 55 0 94-39 39-39 39-94m-367 0q0-56-40-95-39-39-93-39-55 0-94 39-39 39-39 95 0 55 39 94 39 39 94 39 54 0 93-39 40-39 40-94m-42-184q17 0 30-13 12-12 12-29l0-641-93 0 0 338-81 0 0-338-92 0 0 641q0 17 11 29 13 13 30 13l183 0m367 0q17 0 30-13 12-12 12-29l0-641-93 0 0 338-79 0 0-338-94 0 0 641q0 17 13 29 12 13 29 13l182 0m-692 184q0-56-39-95-39-39-94-39-55 0-94 39-39 39-39 95 0 55 39 94 39 39 94 39 55 0 94-39 39-39 39-94m-43-184q18 0 30-13 13-12 13-29l0-641-94 0 0 338-79 0 0-338-93 0 0 641q0 17 12 29 12 13 29 13l182 0" horiz-adv-x="1000" />

<glyph glyph-name="livetile-news" unicode="&#xe848;" d="M38 527q0 40 29 69 29 30 70 30l332 0 0-363-332 0q-41 0-70 29-29 28-29 70l0 16q-16 0-26 11-12 11-12 27l0 55q0 16 12 28 10 10 26 10l0 18m997 45q49-9 82-47 32-39 32-90 0-50-32-90-33-38-82-47l0-221q0-21-18-33l-36-2-450 217 0 370 450 216 36-2q18-10 18-31l0-240m-904-658l90 297 242 0-87-286q-10-33-37-54-28-21-61-21l-99 0q-25 0-40 21-15 20-8 43" horiz-adv-x="1149" />

<glyph glyph-name="load" unicode="&#xe849;" d="M788 421l-223 204 0-381-130 0 0 381-223-203 0 166 288 262 288-263 0-166m-788-145l118 0 0-309 765 0 0 309 117 0 0-338q0-37-26-62-26-26-62-26l-824 0q-35 0-62 26-26 25-26 62l0 338m722-236l-444 0q-24 0-40 18-18 17-18 41 0 24 18 41 16 18 40 18l444 0q24 0 42-18 17-17 17-41 0-24-17-41-18-18-42-18" horiz-adv-x="1000" />

<glyph glyph-name="loadout" unicode="&#xe84a;" d="M957-150l-914 0q-17 0-30 12-13 14-13 31l0 915q0 17 13 30 13 12 30 12 19 0 31-12 13-13 13-30l0-871 826 0 0 871q0 17 13 30 12 12 31 12 18 0 31-12 12-13 12-30l0-915q0-17-12-31-13-12-31-12m-621 269l102 199-86 86q-49 49 15 154l-188 187 103 103 413-414 17 18 118-118-59-101-62 32-139-268-234 122m56 325l41-41 30 58-55 56q-14-24-18-44-6-21 2-29" horiz-adv-x="1000" />

<glyph glyph-name="location" unicode="&#xe84b;" d="M716 414l193 0q29 0 59-19 32-20 32-46 0-24-32-45-30-18-59-18l-193 0-363-436-21 17 111 419-227 0-205-163-11 10 115 215 0 4-115 216 11 9 205-163 227 0-111 419 21 17 363-436" horiz-adv-x="1000" />

<glyph glyph-name="locked" unicode="&#xe84c;" d="M433 2l0 125q19 11 30 31 10 19 10 43 0 35-25 60-25 25-60 25-35 0-60-25-26-25-26-60 0-24 12-43 11-20 30-31l0-125q0-19 14-31 12-13 30-13 19 0 31 13 14 12 14 31m99 557q0 60-43 102-42 42-101 42-60 0-101-42-42-42-42-102l0-151 287 0 0 151m-144 291q120 0 205-86 85-85 85-205l0-151 55 0q18 0 30-13 14-12 14-31l0-470q0-18-14-31-12-13-30-13l-689 0q-18 0-31 13-13 13-13 31l0 470q0 19 13 31 13 13 31 13l54 0 0 151q0 120 85 205 85 86 205 86" horiz-adv-x="777" />

<glyph glyph-name="long-range" unicode="&#xe84d;" d="M973 72l20-15q7-11 7-24l0-139q0-18-13-31-13-13-31-13l-308 0q-19 0-32 13-13 13-13 31l0 139q0 14 9 25 9 13 23 16l21 217-44 0 0 2-42 0 0-24q0-23-16-39-16-16-39-16l-29 0q-23 0-39 16-17 16-17 39l0 24-42 0 0-2-45 0 22-217q14-3 23-16 10-11 10-25l0-139q0-18-14-31-12-13-31-13l-309 0q-18 0-31 13-13 13-13 31l0 139q0 28 26 39l33 219-26 0q-13 0-22 10-8 10-6 22l54 322q2 13 14 23 10 9 25 9l31 0 0 87-26 0 0 75q0 11 11 11l215 0q11 0 11-11l0-75-26 0 0-87 48 0 18-7q8-7 8-18l0-44 42 0 0 19q0 23 17 39 16 17 39 17l29 0q23 0 39-17 16-16 16-39l0-19 42 0 0 44q0 11 7 18 9 7 19 7l48 0 0 87-26 0 0 75q0 11 11 11l215 0q12 0 12-11l0-75-26 0 0-87 31 0q14 0 25-9 10-10 13-23l53-322q3-12-6-22-9-10-21-10l-25 0 31-219" horiz-adv-x="1000" />

<glyph glyph-name="map" unicode="&#xe84e;" d="M1003 756l0-852q0-18-14-31-12-13-31-13l-9 1-243 47 0 942 260-51q16-3 26-16 11-11 11-27m-354 94l0-942-296-58 0 942 296 58m-352-58l0-942-261 52q-16 3-26 15-10 12-10 28l0 851q0 18 13 31 13 13 31 13l9-1 244-47" horiz-adv-x="1003" />

<glyph glyph-name="marksman" unicode="&#xe84f;" d="M280 457q41 9 73 39 30 32 40 74l-35 0 0 62 35 0q-10 43-40 74-32 30-73 39l0-34-63 0 0 34q-43-9-73-39-31-31-40-74l34 0 0-62-34 0q9-42 40-74 30-30 73-39l0 34 63 0 0-34m218 175l0-62-42 0q-10-70-58-119-49-48-118-58l0-40-63 0 0 40q-68 11-117 58-49 49-60 119l-40 0 0 62 40 0q11 69 60 118 49 49 117 59l0 41 63 0 0-41q69-10 118-59 48-49 58-118l42 0m205-539q25 0 42 18 18 18 18 43 0 19-10 34-11 17-29 23l0 131q0 9-6 15-6 6-15 6-9 0-16-6-6-6-6-15l0-131q-17-6-28-23-11-15-11-34 0-26 18-43 18-18 43-18m286 256l-30-31q48-74 48-164 0-126-89-215-89-89-215-89-127 0-215 89-89 89-89 215 0 117 78 204 79 86 193 98l0 61-40 0q-15 0-24 10-9 9-9 22 0 15 9 24 9 9 24 9l146 0q13 0 23-9 9-9 9-24 0-13-9-22-10-10-23-10l-41 0 0-61q71-7 132-46l32 31q19 19 45 19 27 0 45-19 19-19 19-46 0-27-19-46" horiz-adv-x="1008" />

<glyph glyph-name="marksman-2" unicode="&#xe850;" d="M279 458q42 9 73 39 30 31 40 74l-35 0 0 62 35 0q-10 42-40 74-31 29-73 39l0-34-63 0 0 34q-42-10-73-39-30-32-39-74l34 0 0-62-34 0q9-43 39-74 31-30 73-39l0 34 63 0 0-34m219 175l0-62-43 0q-10-70-58-119-49-48-118-58l0-41-63 0 0 41q-68 11-116 58-49 49-60 119l-40 0 0 62 40 0q11 68 60 118 48 48 116 58l0 41 63 0 0-41q69-10 118-58 48-50 58-118l43 0m55-653l283 0 0 74-159 0 0 1 22 19 24 19 27 18 25 19 23 20 19 23 13 28 5 34q0 24-9 45-8 21-26 37-16 16-41 26l-59 8q-43 0-72-13-29-14-44-37-13-18-19-39-6-21-6-53l84 0q0 18 4 32 4 13 12 22 14 16 39 16 23 0 35-13 12-13 12-35 0-13-6-24l-18-20-50-39-53-42-26-24-20-27-13-33q-5-19-6-42m434 368l-31-30q48-75 48-164 0-127-89-215-88-89-214-89-126 0-215 89-89 88-89 215 0 116 78 204 79 85 193 97l0 61-40 0q-14 0-23 10-10 9-10 22 0 14 10 23 9 10 23 10l146 0q13 0 23-10 9-9 9-23 0-13-9-22-10-10-23-10l-41 0 0-61q71-7 132-46l31 31q19 19 45 19 28 0 46-19 19-19 19-46 0-27-19-46m-779-203l-50 51 39 39 50-51 54 54 42-41-54-54 50-51-39-39-50 51-54-54-42 41 54 54" horiz-adv-x="1006" />

<glyph glyph-name="marksman-3" unicode="&#xe851;" d="M280 457q41 9 73 39 30 32 40 74l-35 0 0 62 35 0q-10 43-40 74-32 30-73 39l0-34-63 0 0 34q-43-9-73-39-31-31-40-74l34 0 0-62-34 0q9-42 40-74 30-30 73-39l0 34 63 0 0-34m218 175l0-62-42 0q-10-70-58-119-49-48-118-58l0-40-63 0 0 40q-68 11-117 58-49 49-60 119l-40 0 0 62 40 0q11 69 60 118 49 49 117 59l0 41 63 0 0-41q69-10 118-59 48-49 58-118l42 0m208-662l55 6q26 7 46 21 19 14 31 36 12 21 12 50 0 38-18 59-18 22-48 31l0 1q24 10 40 27 16 18 16 46 0 23-10 43-10 19-28 33-18 13-43 20l-55 6-60-8q-26-9-44-26-19-16-28-39-10-22-10-50l83 0q2 24 15 40 14 17 44 17 22 0 34-12 13-11 13-30 0-21-15-31-16-11-41-11l-20 0 0-62 22 0q31 0 46-13 16-11 16-36 0-22-15-36-14-14-42-14-34 0-50 18-15 19-17 48l-84 0q0-64 40-99 20-17 48-26l67-9m283 379l-30-31q48-74 48-164 0-126-89-215-89-89-215-89-127 0-215 89-89 89-89 215 0 117 78 204 79 86 193 98l0 61-40 0q-15 0-24 10-9 9-9 22 0 15 9 24 9 9 24 9l146 0q13 0 23-9 9-9 9-24 0-13-9-22-10-10-23-10l-41 0 0-61q71-7 132-46l32 31q19 19 45 19 27 0 45-19 19-19 19-46 0-27-19-46m-780-205l-51 51 39 39 51-51 54 54 41-41-54-54 51-51-39-39-51 51-54-54-41 41 54 54" horiz-adv-x="1008" />

<glyph glyph-name="marksman-4" unicode="&#xe852;" d="M280 457q41 9 73 39 30 32 40 74l-35 0 0 62 35 0q-10 43-40 74-32 30-73 39l0-34-63 0 0 34q-43-9-73-39-31-31-40-74l34 0 0-62-34 0q9-42 40-74 30-30 73-39l0 34 63 0 0-34m218 175l0-62-42 0q-10-70-58-119-49-48-118-58l0-40-63 0 0 40q-68 11-117 58-49 49-60 119l-40 0 0 62 40 0q11 69 60 118 49 49 117 59l0 41 63 0 0-41q69-10 118-59 48-49 58-118l42 0m207-503l-102 0 0 2 101 124 1 0 0-126m0-68l0-81 87 0 0 81 53 0 0 68-53 0 0 219-88 0-169-204 0-83 170 0m284 288l-30-31q48-74 48-164 0-126-89-215-89-89-215-89-127 0-215 89-89 89-89 215 0 117 78 204 79 86 193 98l0 61-40 0q-15 0-24 10-9 9-9 22 0 15 9 24 9 9 24 9l146 0q13 0 23-9 9-9 9-24 0-13-9-22-10-10-23-10l-41 0 0-61q71-7 132-46l32 31q19 19 45 19 27 0 45-19 19-19 19-46 0-27-19-46m-780-205l-51 51 39 39 51-51 54 54 41-41-54-54 51-51-39-39-51 51-54-54-41 41 54 54" horiz-adv-x="1008" />

<glyph glyph-name="melee" unicode="&#xe853;" d="M308-68l469 0q19 0 35 13 13 13 14 31 1 19-13 33-13 14-33 14l-224 0q-17 0-30 12-11 12-11 29 0 17 11 30 13 11 30 11l328 0q20 0 33 13 14 14 14 32 0 19-14 32-13 14-33 14l-308 0q-17 0-29 12-12 12-12 29 0 17 12 29 12 12 29 12l364 0q19 0 32 13 14 13 14 32 0 19-14 33-13 13-32 13l-364 0q-17 0-29 12-12 12-12 29 0 17 12 28 12 12 29 12l305 0q20 0 35 13 14 14 15 32 1 18-13 33-14 14-34 14l-450 0 92 124q11 15 14 33 1 18-6 34-11 24-36 32l-50-5-250-137q-54-30-85-83-32-54-32-116l0-266q0-94 67-160 66-66 160-66m600 42q-2-51-40-88-39-36-91-36l-469 0q-128 0-218 91-90 89-90 217l0 266q0 85 42 157 43 73 118 113l250 137q53 30 112 12 58-18 86-75 17-34 14-73-4-39-26-72l288 0q56 0 93-38 37-40 35-93 0-29-16-55 32-16 51-47 20-30 20-67 0-36-19-67-20-30-51-46 15-28 15-60 0-48-32-85-33-35-81-41 10-24 9-50" horiz-adv-x="1067" />

<glyph glyph-name="mission" unicode="&#xe854;" d="M854 704q146-146 146-353 0-207-146-354-147-147-354-147-207 0-353 147-147 147-147 354 0 207 147 353 146 146 353 146 207 0 354-146m-67-67q-119 119-287 119-168 0-287-119-119-119-119-286 0-168 119-287 119-119 287-119 168 0 287 119 119 119 119 287 0 167-119 286m-287 41q136 0 231-96 97-96 97-231 0-135-97-232-95-96-231-96-135 0-232 96-95 96-95 232 0 135 95 231 97 96 232 96m165-162q-68 68-165 68-96 0-165-68-68-68-68-165 0-97 68-165 69-68 165-68 97 0 165 68 68 68 68 165 0 97-68 165m-72-72q40-39 40-93 0-55-40-94-38-39-93-39-55 0-94 39-38 39-38 94 0 54 38 93 39 39 94 39 55 0 93-39" horiz-adv-x="1000" />

<glyph glyph-name="mouse-keyboard" unicode="&#xe855;" d="M952 374l0 67-4 11-11 4-65 0-11-4-4-11 0-67q0-5 4-10 5-4 11-4l65 0 11 4 4 10m-318 170l0 66-5 10-10 4-66 0-11-4-4-10 0-66q0-7 4-11 5-4 11-4l66 0 10 4 5 11m0 168l0 66-5 10-10 5-66 0q-6 0-11-5l-4-10 0-66q0-6 4-11 5-4 11-4l66 0 10 4 5 11m159-168l0 66-4 10-10 4-68 0-10-4-4-10 0-66q0-7 4-11l10-4 68 0 10 4 4 11m159 0l0 66-4 10-11 4-65 0-11-4-4-10 0-66q0-7 4-11 5-4 11-4l65 0 11 4 4 11m-159 168l0 66-4 10-10 5-68 0q-5 0-10-5l-4-10 0-66q0-6 4-11l10-4 68 0 10 4 4 11m159 0l0 66-4 10-11 5-65 0q-6 0-11-5l-4-10 0-66q0-6 4-11 5-4 11-4l65 0 11 4 4 11m-796-338l0 67-3 11-12 4-65 0-11-4-5-11 0-67 5-10 11-4 65 0q15 0 15 14m0 170l0 66-3 10-12 4-65 0-11-4-5-10 0-66 5-11 11-4 65 0q15 0 15 15m806 306q19 0 32-13 13-12 13-31l0-458q0-19-13-32-13-13-32-13l-84 0-23 27-62 62 0 49-4 11-10 4-75 0q-69 27-139 0l-330 0-11-4-4-11 0-67 4-10 11-4 210 0-57-57-343 0q-19 0-32 13-13 13-13 32l0 458q0 19 13 31 13 13 32 13l917 0m-806-138l0 66-3 10-12 5-65 0-11-5-5-10 0-66 5-11 11-4 65 0q15 0 15 15m319-168l0 66q0 6-4 10l-11 4-66 0-11-4-4-10 0-66 4-11 11-4 66 0q6 0 11 4 4 4 4 11m-159 0l0 66q0 6-5 10l-10 4-66 0-11-4-4-10 0-66 4-11 11-4 66 0q6 0 10 4 5 4 5 11m0 168l0 66q0 6-5 10l-10 5-66 0-11-5-4-10 0-66 4-11 11-4 66 0q6 0 10 4 5 5 5 11m159 0l0 66q0 6-4 10-5 5-11 5l-66 0-11-5-4-10 0-66 4-11 11-4 66 0q6 0 11 4l4 11m108-541l-122 123 76 75q41 41 98 41 56 0 97-41l25-25-174-173m32-32l173 174 25-25q41-40 41-97 0-57-41-98l-76-76-122 122m-185 123l276-276-96-96q-39-40-97-40-57 0-97 40l-81 82q-41 40-41 97 0 57 41 98l95 95" horiz-adv-x="1007" />

<glyph glyph-name="next-level" unicode="&#xe856;" d="M1000 61l-210-211 0 641-557-557-149 149 556 556-640 0 210 211 790 0 0-789" horiz-adv-x="1000" />

<glyph glyph-name="nodus" unicode="&#xe857;" d="M439 748q0-22 19-37 17-17 42-17 24 0 43 17 17 15 17 37 0 23-17 39-19 16-43 16-25 0-42-16-19-16-19-39m0-252q0-23 19-38 17-16 42-16 24 0 43 16 17 15 17 38 0 22-17 38-19 16-43 16-25 0-42-16-19-16-19-38m561 288l0-887q0-20-15-34-15-13-37-13l-897 0q-22 0-36 13-15 14-15 34l0 887 103-189 794 0 103 189m-855-128l-105 194 920 0-106-194-709 0m693-384l-677 0 0-290 677 0 0 290m-77-179l0-61-523 0 0 61 523 0m0 68l-523 0 0 61 523 0 0-61" horiz-adv-x="1000" />

<glyph glyph-name="npc" unicode="&#xe858;" d="M804 546q0-127-90-215-88-90-214-90-127 0-217 90-89 88-89 215 0 126 89 215 90 89 217 89 126 0 214-89 90-89 90-215m194-696l-998 0 0 131q0 89 63 153 63 63 153 63l566 0q89 0 154-63 62-64 62-153l0-131" horiz-adv-x="998" />

<glyph glyph-name="nvidia" unicode="&#xe859;" d="M563 714l0 136 946 0 0-1000-946 0 0 117 61-4q173 0 406 74 245 77 366 179l-84 51-87 52q-156-135-274-195-159-83-330-83l-58 4 0 83 70-5q167 0 362 155l117 107 45 49q-55 74-154 146-199 142-412 136l-28-2 0-74 28 3q153 5 296-105 72-54 112-108l-111-121q-134-121-251-121l-74 11 0-71q-143 26-233 155-27 42-47 88l-14 38 78 64q102 65 216 78l0 89q-170-12-307-118-68-53-101-103l21-53q29-65 69-119 128-177 318-202l0-78q-259 25-436 249-57 70-97 152l-30 66q67 64 170 132 206 133 393 148m0-241q-60 8-121-35l-50-43 36-81q54-88 135-115l0 274q66-7 102-44 20-20 71-107l128 110q-22 30-66 60-86 62-185 62l-50-3 0-78" horiz-adv-x="1509" />

<glyph glyph-name="objective" unicode="&#xe85a;" d="M984 760l-484-410 409 485q16 15 38 15 22 0 37-15 15-15 15-37 0-22-15-38m-67-133q83-127 83-277 0-207-147-353-146-147-353-147-207 0-353 147-147 146-147 353 0 208 147 353 146 147 353 147 151 0 276-82l-83-99q-89 54-193 54-154 0-263-110-109-109-109-263 0-153 109-263 109-109 263-109 153 0 263 109 109 110 109 263 0 105-54 193l99 84m-292-277l-3 28 101 85q27-54 27-113 0-103-72-177-75-73-178-73-104 0-177 73-74 74-74 177 0 104 74 178 73 73 177 73 59 0 112-27l-85-101-27 3q-52 0-89-37-37-36-37-89 0-52 37-88 37-37 89-37 53 0 88 37 37 36 37 88" horiz-adv-x="1000" />

<glyph glyph-name="one-man-army" unicode="&#xe85b;" d="M354 735l0 65-276 0 0-65 276 0m0-123l0 65-276 0 0-65 276 0m0-124l0 66-276 0 0-66 276 0m0-123l0 66-276 0 0-66 276 0m62 230l-13 0 0-30 13 0 22-12 26-10q27-14 27-24 0-18-53-35l-22-12-13 0 0-30 13 0 22-13 26-10q27-13 27-24 0-17-53-34l-22-13-13 0 0-30 13 0 48-24q27-12 27-23 0-17-53-33l-22-13-13 0 0-31 13 0 22-12 26-11q27-13 27-23 0-17-53-35l-22-12-13 0 0-31 13 0 22-12 26-10q27-13 27-24 0-17-53-34l-22-13-13 0 0-25 35 0 0-67q0-14-10-24-10-11-25-11l-369 0q-14 0-24 11-10 9-10 24l0 67 35 0 0 876 6 16 17 6 322 0 17-6q6-6 6-16l0-15 13 0 22-13q53-17 53-34 0-18-53-34l-22-13-13 0 0-31 13 0 22-12 26-10q27-13 27-23 0-18-53-35l-22-13m447 140l0 65-276 0 0-65 276 0m0-123l0 65-276 0 0-65 276 0m0-124l0 66-276 0 0-66 276 0m0-123l0 66-276 0 0-66 276 0m61 230l-12 0 0-30 12 0 23-12 26-10q27-14 27-24 0-18-53-35l-23-12-12 0 0-30 12 0 23-13 26-10q27-13 27-24 0-17-53-34l-23-13-12 0 0-30 12 0 49-24q27-12 27-23 0-17-53-33l-23-13-12 0 0-31 12 0 23-12 26-11q27-13 27-23 0-17-53-35l-23-12-12 0 0-31 12 0 23-12 26-10q27-13 27-24 0-17-53-34l-23-13-12 0 0-25 35 0 0-67q0-14-11-24-9-11-23-11l-370 0q-15 0-25 11-9 9-9 24l0 67 34 0 0 876q0 10 7 16 7 6 16 6l323 0 16-6q7-6 7-16l0-15 12 0 23-13q53-17 53-34 0-18-53-34l-23-13-12 0 0-31 12 0 23-12 26-10q27-13 27-23 0-18-53-35l-23-13" horiz-adv-x="1000" />

<glyph glyph-name="online" unicode="&#xe85c;" d="M904-139l-37-11q-38 0-58 32-16 24-10 51 5 28 30 44 95 62 149 161 55 100 55 214 0 112-53 211-53 99-145 161-25 16-31 44-5 28 11 52 15 23 45 28 27 6 51-9 122-82 191-211 69-129 69-276 0-148-71-279-71-130-196-212m-164 181q-38 0-57 31-16 24-10 52 7 28 30 43 47 31 74 80 27 47 27 104 0 55-26 103-25 49-70 79-24 15-29 43-6 29 11 51 16 25 44 31 27 4 51-11 75-51 115-129 42-79 42-167 0-92-43-171-45-79-122-129-16-10-37-10m-253 31q-20-31-57-31-21 0-38 10-77 50-119 129-45 79-45 171 0 88 42 167 41 78 115 129 24 15 51 11 28-6 45-31 15-22 10-51-5-28-29-43-45-30-71-79-25-48-25-103 0-57 26-104 27-49 74-80 25-15 30-43 7-28-9-52m-125-191q-22-32-59-32-19 0-37 11-124 82-195 212-71 130-71 279 0 147 69 276 68 129 190 211 24 15 52 9 28-5 44-28 17-24 10-52-5-28-29-44-93-62-146-161-53-99-53-211 0-114 55-214 54-99 149-161 24-16 31-44 5-27-10-51m224 561q39 0 70-29 28-28 28-69 0-40-28-67-31-28-70-28-42 0-70 28-30 27-30 67 0 41 30 69 28 29 70 29" horiz-adv-x="1171" />

<glyph glyph-name="opportunity-completed" unicode="&#xe85d;" d="M534 759l25 36q6 7 14 9l15-4 66-46q7-5 9-13 1-8-4-14l-52-76q20-53 20-114 0-80-39-151-39-69-105-111l0-96q0-26-18-44-19-18-45-18l-213 0q-26 0-43 18-19 18-19 44l0 96q-65 42-104 109-39 69-41 150-2 120 87 214 89 95 209 101l18 1q129 0 220-91l-227-331-117 117-13 6q-8 0-14-6l-57-57q-7-4-7-13-1-8 6-15l188-190q13-12 29-11 16 2 26 16l259 376q-23 59-72 107l-1 1m-47-746l0-79q0-13-8-21-9-9-21-9l-38 0q-12 0-15-8l-22-37q-5-9-15-9l-109 0q-9 0-15 9l-21 37-20 5-23 3q-13 0-22 9-9 8-9 21l0 79q0 12 9 21 9 9 22 9l278 0q12 0 21-9 8-9 8-21" horiz-adv-x="663" />

<glyph glyph-name="opportunity-discovered" unicode="&#xe85e;" d="M799 725q-14-12-31-12-19 0-32 12-12 13-12 31 0 18 12 30l51 51q12 13 31 13 18 0 31-13 13-13 13-31 0-18-13-31l-50-50m-299-30l-11 0q-77-5-136-67-58-64-57-140 1-52 25-96 26-45 70-72 40-27 40-74l0-60 139 0 0 60q0 47 40 74 45 28 70 73 26 46 26 97 0 85-61 144-60 61-145 61m0 87q122 0 207-86 86-85 86-206 0-75-37-140-37-64-98-104l0-90q0-24-17-40-17-17-41-17l-199 0q-24 0-40 17-18 16-18 40l0 90q-61 39-96 102-37 64-39 139-1 112 81 200 83 88 195 94l16 1m349-641q-12-13-31-13-19 0-31 13l-51 50q-12 14-12 31 0 19 12 31 13 13 32 13 18 0 31-13l50-50q13-13 13-32 0-17-13-30m150 349q0-19-13-31-13-14-31-14l-77 0q-18 0-30 14-14 12-14 31 0 17 14 29 12 14 30 14l77 0q18 0 31-14 13-12 13-29m-337-488l0-74q0-11-7-20-9-8-20-8l-35 0q-11 0-15-8l-20-34-14-8-101 0q-9 0-14 8l-20 34q-1 4-19 5l-21 3q-12 0-20 8-9 9-9 20l0 74q0 11 9 20 8 8 20 8l259 0q11 0 20-8 7-9 7-20m-450 139q-12-13-30-13-19 0-31 13-14 13-14 30 0 19 14 32l51 51q12 12 30 12 19 0 31-12 13-13 13-31 0-18-13-31l-51-51m-47 349q0-19-13-31-12-14-30-14l-79 0q-17 0-30 14-13 12-13 31 0 17 13 29 13 14 30 14l79 0q18 0 30-14 13-12 13-29m98 233q-13-11-31-11-16 0-30 11l-51 52q-14 13-14 31 0 18 14 31 12 13 31 13 17 0 30-13l51-52q13-12 13-30 0-18-13-32" horiz-adv-x="999" />

<glyph glyph-name="opportunity-disabled" unicode="&#xe85f;" d="M521 410l-129 130 129 130 5 11-5 12-56 57-12 5q-8 0-12-5l-130-130-129 130-11 5-13-5-56-57-5-12 5-11 129-130-129-130-5-11 5-12 56-57 13-5 11 5 129 130 130-130q4-5 12-5l12 5 56 57 5 12-5 11m-207 440q130 0 221-92 92-91 92-221 0-80-39-151-39-69-105-111l0-96q0-26-18-44-19-18-45-18l-213 0q-26 0-43 18-19 18-19 44l0 96q-65 42-104 109-39 69-41 150-2 120 87 214 89 95 209 101l18 1m173-837l0-79q0-13-8-21-9-9-21-9l-38 0q-12 0-15-8l-22-37-15-9-109 0q-9 0-15 9l-21 37q-1 3-20 5l-23 3q-13 0-22 9-9 8-9 21l0 79q0 12 9 21 9 9 22 9l278 0q12 0 21-9 8-9 8-21" horiz-adv-x="627" />

<glyph glyph-name="opportunity-search" unicode="&#xe860;" d="M499 366l54 4q71 12 116 56l13 14q20 22 27 44l1 2q-6 21-19 39l-3 4-41 39q-39 26-94 34l-2 0-52 4q-65 0-112-20l-5-2-30-16-29-25-2-3q-21-23-34-54l1-2 8-16 29-38 3-4q26-24 58-39 49-21 113-21m300 359q-14-12-31-12-19 0-32 12-12 13-12 31 0 18 12 30l51 51q12 13 31 13 18 0 31-13 13-13 13-31 0-18-13-31l-50-50m-225-239l0-2 0-2q-2-28-22-49-22-22-53-22-29 0-48 17l-2 2-3 3q-22 22-22 53 0 30 22 53l5 5q20 17 48 17 31 0 53-22 22-23 22-53m-74 296q122 0 207-86 86-85 86-206 0-75-37-140-37-64-98-104l0-90q0-24-17-40-17-17-41-17l-199 0q-24 0-40 17-18 16-18 40l0 90q-61 39-96 102-37 64-39 139-1 112 81 200 83 88 195 94l16 1m349-641q-12-13-31-13-19 0-31 13l-51 50q-12 14-12 31 0 19 12 31 13 13 32 13 18 0 31-13l50-50q13-13 13-32 0-17-13-30m150 349q0-19-13-31-13-14-31-14l-77 0q-18 0-30 14-14 12-14 31 0 17 14 29 12 14 30 14l77 0q18 0 31-14 13-12 13-29m-337-488l0-74q0-11-7-20-9-8-20-8l-35 0q-11 0-15-8l-20-34-14-8-101 0q-9 0-14 8l-20 34q-1 4-19 5l-21 3q-12 0-20 8-9 9-9 20l0 74q0 11 9 20 8 8 20 8l259 0q11 0 20-8 7-9 7-20m-450 139q-12-13-30-13-19 0-31 13-14 13-14 30 0 19 14 32l51 51q12 12 30 12 19 0 31-12 13-13 13-31 0-18-13-31l-51-51m-47 349q0-19-13-31-12-14-30-14l-79 0q-17 0-30 14-13 12-13 31 0 17 13 29 13 14 30 14l79 0q18 0 30-14 13-12 13-29m98 233q-13-11-31-11-16 0-30 11l-51 52q-14 13-14 31 0 18 14 31 12 13 31 13 17 0 30-13l51-52q13-12 13-30 0-18-13-32" horiz-adv-x="999" />

<glyph glyph-name="opportunity-failed" unicode="&#xe861;" d="M703 620q0-90-44-169-44-77-118-125l0-108q0-29-20-49-21-20-50-20l-239 0q-29 0-49 20-21 20-21 49l0 108q-73 47-116 123-44 77-46 167-1 52 14 100l185-151 134 183 140-161 143 263q87-97 87-230m-157-588l0-88q0-14-9-24-10-10-24-10l-42 0q-13 0-17-9l-25-41-17-10-122 0q-10 0-17 10l-23 41q-2 4-23 6l-26 3q-14 0-24 10-10 10-10 24l0 88q0 14 10 24 10 10 24 10l312 0q14 0 24-10 9-10 9-24" horiz-adv-x="703" />

<glyph glyph-name="opportunity-tracked" unicode="&#xe862;" d="M799 725q-14-12-31-12-19 0-32 12-12 13-12 31 0 18 12 30l51 51q12 13 31 13 18 0 31-13 13-13 13-31 0-18-13-31l-50-50m-299 57q122 0 207-86 86-85 86-206 0-75-37-140-37-64-98-104l0-90q0-24-17-40-17-17-41-17l-199 0q-24 0-40 17-18 16-18 40l0 90q-61 39-96 102-37 64-39 139-1 112 81 200 83 88 195 94l16 1m349-641q-12-13-31-13-19 0-31 13l-51 50q-12 14-12 31 0 19 12 31 13 13 32 13 18 0 31-13l50-50q13-13 13-32 0-17-13-30m150 349q0-19-13-31-13-14-31-14l-77 0q-18 0-30 14-14 12-14 31 0 17 14 29 12 14 30 14l77 0q18 0 31-14 13-12 13-29m-337-488l0-74q0-11-7-20-9-8-20-8l-35 0q-11 0-15-8l-20-34-14-8-101 0q-9 0-14 8l-20 34q-1 4-19 5l-21 3q-12 0-20 8-9 9-9 20l0 74q0 11 9 20 8 8 20 8l259 0q11 0 20-8 7-9 7-20m-450 139q-12-13-30-13-19 0-31 13-14 13-14 30 0 19 14 32l51 51q12 12 30 12 19 0 31-12 13-13 13-31 0-18-13-31l-51-51m-47 349q0-19-13-31-12-14-30-14l-79 0q-17 0-30 14-13 12-13 31 0 17 13 29 13 14 30 14l79 0q18 0 30-14 13-12 13-29m98 233q-13-11-31-11-16 0-30 11l-51 52q-14 13-14 31 0 18 14 31 12 13 31 13 17 0 30-13l51-52q13-12 13-30 0-18-13-32" horiz-adv-x="999" />

<glyph glyph-name="opportunity-undiscovered" unicode="&#xe863;" d="M314 757l-13 0q-82-5-145-72-63-68-62-150 2-56 28-103 27-48 74-78 43-29 43-79l0-65 150 0 0 65q0 50 43 79 48 30 75 79 27 49 27 104 0 91-65 155-64 65-155 65m0 93q130 0 221-92 92-91 92-221 0-80-39-151-39-69-105-111l0-96q0-26-18-44-19-18-45-18l-213 0q-26 0-43 18-19 18-19 44l0 96q-65 42-104 109-39 69-41 150-2 120 87 214 89 95 209 101l18 1m173-837l0-79q0-13-8-21-9-9-21-9l-38 0q-12 0-15-8l-22-37-15-9-109 0q-9 0-15 9l-21 37q-1 3-20 5l-23 3q-13 0-22 9-9 8-9 21l0 79q0 12 9 21 9 9 22 9l278 0q12 0 21-9 8-9 8-21" horiz-adv-x="627" />

<glyph glyph-name="outbreak" unicode="&#xe864;" d="M215 475l-5 59q0 118 77 208 75 89 190 108l0-15q-76-18-124-80-49-62-49-141 0-66 34-121 26-43 69-71 44-27 94-33l30-3 29 3q50 6 94 33 42 28 69 71 35 57 35 121 0 79-49 141-49 62-124 80l0 15q114-19 190-108 77-90 77-208 0-31-6-59 26-9 54-25 102-59 142-170 39-111-2-220l-14 8q22 75-7 147-28 74-97 114-56 33-122 30-51-1-96-25-45-23-76-64l-16-24q-8-11-13-26-20-48-17-99 3-50 25-95 30-57 88-92 68-38 147-28 77 13 131 70l13-8q-73-90-188-112-117-22-220 38l-47 34-49-34q-102-60-218-38-116 22-189 112l13 8q54-57 131-70 79-10 147 28 57 35 87 92 23 45 26 95 3 51-17 99l-13 26-16 24q-32 41-76 64-45 24-96 25-66 3-122-30-69-40-98-114-29-72-7-147l-13-8q-41 109-2 220 40 111 142 170 27 16 54 25m610-182q0-91-50-167-50-72-132-105l-12 17q-13 25-19 57 59 24 96 77 37 55 37 121l-3 28q29 10 59 11l8 1 12-1 4-39m-464 215l-11 17q79 62 181 62 101 0 179-62l-10-17q-15-26-39-46-57 45-130 45-74 0-131-45-23 20-39 46m170-148q-28 0-48-20-19-20-19-47 0-27 19-48 20-19 48-19 27 0 47 19 20 21 20 48 0 27-20 47-20 20-47 20m-214-67q0-66 37-121 36-53 95-77-6-32-19-57l-12-17q-81 33-131 105-50 76-50 167l2 39 13 1 8-1q30-1 59-11l-2-28" horiz-adv-x="1061" />

<glyph glyph-name="piercing" unicode="&#xe865;" d="M361 343q0 20 103 44l103 19 41 22 297 0 0-170-297 0-41 23-103 18q-103 24-103 44m87-115l70-14 0-364-459 0q-25 0-42 17-17 18-17 42l0 883q0 25 17 41 17 17 42 17l459 0 0-378-70-14q-71-15-105-34-55-30-55-81 0-51 55-81 34-19 105-34m552 202l0-174-65 0 0 174 65 0" horiz-adv-x="1000" />

<glyph glyph-name="play" unicode="&#xe866;" d="M854 704q146-146 146-353 0-207-146-354-147-147-354-147-207 0-353 147-147 147-147 354 0 207 147 353 146 146 353 146 207 0 354-146m-67-67q-119 119-287 119-168 0-287-119-119-119-119-286 0-168 119-287 119-119 287-119 168 0 287 119 119 119 119 287 0 167-119 286m-437-54l400-233-400-233 0 466" horiz-adv-x="1000" />

<glyph glyph-name="point-shooting" unicode="&#xe867;" d="M358 581q0-37-25-63-27-26-64-26-36 0-63 26-26 26-26 63 0 37 26 63 27 26 63 26 37 0 64-26 25-26 25-63m-89 168q-69 0-119-49-49-50-49-119 0-70 49-119 50-49 119-49 70 0 119 49 50 49 50 119 0 69-50 119-49 49-119 49m0 101q112 0 190-78 79-80 79-191 0-112-79-190-78-79-190-79-111 0-191 79-78 78-78 190 0 111 78 191 80 78 191 78m551-732q0-36-26-62-26-26-62-26-37 0-64 26-25 26-25 62 0 37 25 64 27 26 64 26 36 0 62-26 26-27 26-64m-88 169q-69 0-119-49-50-50-50-120 0-69 50-118 49-49 119-49 70 0 118 49 49 48 49 118 0 70-49 120-49 49-118 49m0 101q111 0 190-79 78-79 78-191 0-111-78-190-79-78-190-78-112 0-191 78-78 80-78 190 0 111 78 191 80 79 191 79" horiz-adv-x="1000" />

<glyph glyph-name="poison" unicode="&#xe868;" d="M287 314q-19 0-33 13-14 14-14 33 0 20 14 34 14 13 33 13 19 0 33-13 14-14 14-34 0-19-14-33-14-13-33-13m259-333l-116 52 116 50-24 54-165-73-164 73-24-54 115-50-115-52 24-54 164 73 165-73 24 54m-189 557q-73 0-124-52-52-52-52-126 0-48 24-90 24-39 64-63l0-59 177 0 0 59q40 24 64 63 24 42 24 90 0 74-52 126-51 52-125 52m71-224q-19 0-33 13-14 14-14 33 0 20 14 34 14 13 33 13 19 0 33-13 14-14 14-34 0-19-14-33-14-13-33-13m231 333q24 0 42-18 16-17 16-42l0-679q0-24-16-41-18-17-42-17l-601 0q-24 0-40 17-18 17-18 41l0 679q0 25 18 42 16 18 40 18l146 0 0 50-44 0q-24 0-41 16-17 18-17 42l0 37q0 25 17 41 17 17 41 17l396 0q25 0 42-17 17-16 17-41l0-37q0-24-17-42-17-16-42-16l-42 0 0-50 145 0" horiz-adv-x="717" />

<glyph glyph-name="profile" unicode="&#xe869;" d="M799 235l36-15 2 0 206-87 30-19 0-90 0-2 0-52 0-3 0-3 0-42 0-2 0-24q0-19-13-33-13-13-34-13l-425 0-14 174-6 28-7 0-2 8-9 33 5 20 30 38-26 43-54 0-10-18-9-22q-2-5 11-28l12-25-5-47 0-2-4 0-8-47-16-155-442 0q-20 0-34 13-13 14-13 33l0 24 0 2 0 45 0 3 0 52 0 2 0 3 0 82 262 111 3 0 35 15 70 55 12 0 21 41-9 19-8 55-3 45-31 63q-9 24-12 57-3 34 5 37 12 3 23-12l-7 37q-2 46 15 93 19 54 70 90 50 35 103 35 53 0 103-35 52-36 71-90 16-47 14-93l-6-37 7 6 14 6q8-3 7-37-3-33-13-57l-31-63-11-100-9-19 22-41 11 0 71-55" horiz-adv-x="1073" />

<glyph glyph-name="publish" unicode="&#xe86a;" d="M535 661l0 180q39-15 74-62 37-47 62-118l-136 0m185-275l-185 0 0 202 159 0q24-95 26-202m48 202l174 0q51-96 58-202l-207 0q-2 105-25 202m-100 235q135-47 225-162l-144 0q-31 97-81 162m125-510l207 0q-7-106-58-202l-174 0q23 97 25 202m-99-202l-386 0q-24 94-26 202l438 0q-2-108-26-202m-23-74q-31-87-78-138-45-49-92-49-47 0-93 49-45 51-77 138l340 0m222 0q-89-114-225-162 50 67 81 162l144 0m-431 787l0-436-436 0 0 110 248 0-274 275 77 77 275-274 0 248 110 0m-229-713l-173 0q-51 96-58 202l206 0q3-105 25-202m101-236q-136 49-226 162l145 0q32-95 81-162" horiz-adv-x="1000" />

<glyph glyph-name="rate-of-fire" unicode="&#xe86b;" d="M976-63q0-20-103-44l-103-19-42-22-296 0 0 171 296 0 42-24 103-19q103-23 103-43m-488 422q25 0 42 19 18 18 18 43 0 19-10 34-11 17-29 23l0 131q0 9-6 15-6 7-15 7-10 0-16-7-6-6-6-15l0-131q-18-6-28-23-11-15-11-34 0-26 17-43 19-19 44-19m287 258l-31-31q49-75 49-165 0-127-90-216-89-89-215-89-127 0-216 89-89 89-89 216 0 117 78 205 79 86 194 98l0 61-41 0q-14 0-23 10-9 9-9 23 0 14 9 23 9 9 23 9l147 0q13 0 23-9 9-9 9-23 0-14-9-23-10-10-23-10l-41 0 0-61q71-7 133-46l31 31q19 19 45 19 28 0 46-19 19-19 19-46 0-27-19-46m-437-767l0 173 65 0 0-173-65 0m-60 106l-278 0 0 73 278 0 0-73m0-105l-169 0 0 73 169 0 0-73" horiz-adv-x="976" />

<glyph glyph-name="rate-of-fire-2" unicode="&#xe86c;" d="M1038-63q0-20-104-44l-102-19-42-22-297 0 0 171 297 0 42-24 102-19q104-23 104-43m-637 310l284 0 0 74-159 0 0 1 22 19 24 19 26 18 25 20 24 20 19 22 13 28 5 35q0 24-9 45-8 21-26 37-16 17-41 26l-60 8q-43 0-72-13-29-14-44-37-14-18-19-39-6-22-6-53l84 0 4 31 13 23q13 16 39 16 23 0 35-13 12-13 12-35 0-13-6-24l-18-21-51-39-53-42-26-24-20-27-13-34-6-41m436 370l-31-31q48-75 48-165 0-127-89-216-89-89-216-89-126 0-216 89-89 89-89 216 0 117 79 205 79 86 194 98l0 61-41 0q-14 0-23 10-10 9-10 23 0 14 10 23 9 9 23 9l147 0q13 0 23-9 9-9 9-23 0-14-9-23-10-10-23-10l-41 0 0-61q71-7 132-46l32 31q19 19 45 19 27 0 46-19 19-19 19-46 0-27-19-46m-783-204l-51 50 40 40 50-51 55 54 41-42-54-54 51-51-39-39-51 51-54-54-42 41 54 55m345-563l0 173 65 0 0-173-65 0m-60 106l-277 0 0 73 277 0 0-73m0-105l-168 0 0 73 168 0 0-73" horiz-adv-x="1038" />

<glyph glyph-name="rate-of-fire-3" unicode="&#xe86d;" d="M1038-63q0-20-104-44l-102-19-42-22-297 0 0 171 297 0 42-24 102-19q104-23 104-43m-485 299l55 7q25 6 45 20 20 15 32 36 12 22 12 51 0 38-18 59-18 22-48 31l0 1q24 10 40 27 16 18 16 46 0 24-10 44-10 19-29 32-17 13-42 20l-55 7-61-9-44-25q-18-16-28-40-10-22-10-50l84 0q1 25 15 40 14 17 43 17 23 0 35-12 13-11 13-30 0-20-15-31-16-11-41-11l-20 0 0-63 21 0q31 0 47-12 16-12 16-36 0-22-15-37-14-14-43-14-34 0-50 19-15 19-16 48l-85 0q0-64 41-100 19-17 47-26l68-9m284 381l-31-31q48-75 48-165 0-127-89-216-89-89-216-89-126 0-216 89-89 89-89 216 0 117 79 205 79 86 194 98l0 61-41 0q-14 0-23 10-10 9-10 23 0 14 10 23 9 9 23 9l147 0q13 0 23-9 9-9 9-23 0-14-9-23-10-10-23-10l-41 0 0-61q71-7 132-46l32 31q19 19 45 19 27 0 46-19 19-19 19-46 0-27-19-46m-783-204l-51 50 40 40 50-51 55 54 41-42-54-54 51-51-39-39-51 51-54-54-42 41 54 55m285-457l-277 0 0 73 277 0 0-73m60-106l0 173 65 0 0-173-65 0m-60 1l-168 0 0 73 168 0 0-73" horiz-adv-x="1038" />

<glyph glyph-name="rate-of-fire-4" unicode="&#xe86e;" d="M1038-63q0-20-104-44l-102-19-42-22-297 0 0 171 297 0 42-24 102-19q104-23 104-43m-486 459l-103 0 0 2 101 124 2 0 0-126m0-68l0-81 87 0 0 81 53 0 0 68-53 0 0 220-89 0-169-205 0-83 171 0m285 289l-31-31q48-75 48-165 0-127-89-216-89-89-216-89-126 0-216 89-89 89-89 216 0 117 79 205 79 86 194 98l0 61-41 0q-14 0-23 10-10 9-10 23 0 14 10 23 9 9 23 9l147 0q13 0 23-9 9-9 9-23 0-14-9-23-10-10-23-10l-41 0 0-61q71-7 132-46l32 31q19 19 45 19 27 0 46-19 19-19 19-46 0-27-19-46m-783-204l-51 50 40 40 50-51 55 54 41-42-54-54 51-51-39-39-51 51-54-54-42 41 54 55m285-457l-277 0 0 73 277 0 0-73m60-106l0 173 65 0 0-173-65 0m-60 1l-168 0 0 73 168 0 0-73" horiz-adv-x="1038" />

<glyph glyph-name="remote" unicode="&#xe86f;" d="M348 179l0 199-196 0 0-199 196 0m-100-259q40 0 68 29 28 28 28 69 0 40-28 69-28 28-68 28-40 0-68-28-28-29-28-69 0-41 28-69 28-29 68-29m-114 686q49 47 116 47 66 0 116-47l-116-124-116 124m314-158q17 0 30-12 12-12 12-29l0-515q0-17-12-30-13-12-30-12l-396 0q-18 0-29 12-13 13-13 30l0 515q0 17 13 29 11 12 29 12l396 0m-198 402q72 0 137-27 62-26 113-74l-94-100q-67 64-156 64-90 0-157-64l-93 100q51 48 113 74 65 27 137 27" horiz-adv-x="500" />

<glyph glyph-name="replay" unicode="&#xe870;" d="M839 270q0-174-122-298-124-122-297-122-86 0-163 32-75 32-134 90-59 59-90 134-33 78-33 164l108 0q0-130 91-222 91-91 221-91 129 0 220 91 93 92 93 222 0 128-93 220-91 92-220 92l-7 0 85-84-77-77-213 214 213 215 77-77-85-84 7 0q173 0 297-123 122-123 122-296" horiz-adv-x="839" />

<glyph glyph-name="reset" unicode="&#xe871;" d="M614 661q-15 5-23 17-7 13-4 27l21 114q4 16 18 25 14 9 30 4 129-35 228-132 151-152 151-366 0-215-151-366l58-58q8-9 4-21-5-11-18-11l-364-6q-11 0-16 9-6 7-2 17l101 269q4 9 13 12 11 2 18-5l70-70q95 96 95 230 0 135-95 231-58 58-134 80m-143 151q10 0 15-9 6-7 3-17l-101-268q-3-10-14-12-10-3-17 5l-71 70q-95-96-95-231 0-134 95-230 59-58 136-81 13-4 21-17 8-12 4-27l-20-113q-4-17-18-26-14-9-31-4-129 36-227 132-151 151-151 366 0 214 151 366l-58 59q-8 8-4 21 5 11 17 11l365 5" horiz-adv-x="1034" />

<glyph glyph-name="reset-back" unicode="&#xe872;" d="M681 850l244 0-367-403 667 0 0-194-670 0 370-403-249 0-456 500 461 500m-681 0l181 0 0-1000-181 0 0 1000" horiz-adv-x="1224" />

<glyph glyph-name="save" unicode="&#xe873;" d="M212 673l222-204 0 381 131 0 0-381 223 203 0-165-288-263-288 264 0 165m-212-397l118 0 0-309 765 0 0 309 117 0 0-338q0-37-26-62-26-26-62-26l-824 0q-36 0-62 26-26 25-26 62l0 338m721-236l-443 0q-25 0-41 18-18 17-18 41 0 24 18 41 16 18 41 18l443 0q25 0 42-18 17-17 17-41 0-24-17-41-17-18-42-18" horiz-adv-x="1000" />

<glyph glyph-name="save-auto" unicode="&#xe874;" d="M515 850l-3-22-10-25q-8-17-20-29l-16-14q-6-7-18-14l-21-11-24-7-25-5-26-2-51 6-20 4-54 3-40-5-22-8-25-12-20-12-16-14 3 22 9 26 21 29 15 14 19 13 21 10 23 8 26 5 26 1 26-1 25-3 37-7 18-1 19 0 16 1 31 7 15 4 25 12 19 14 12 9 5 4m-106-841l0 114-157 0 0-114 157 0m327 218l264 206 0-583-1000 0 0 377 29 431 149 0 30-431 264 206 0-206 264 206 0-206m-67-218l0 114-156 0 0-114 156 0m259 0l0 114-156 0 0-114 156 0" horiz-adv-x="1000" />

<glyph glyph-name="save-disabled" unicode="&#xe875;" d="M732 533l202-202-115-116-202 201-202-201-116 116 202 202-202 200 116 117 202-202 202 202 115-117-202-200m-732-158l145 0 0-380 943 0 0 380 146 0 0-416q0-46-32-77-32-32-77-32l-1016 0q-44 0-77 32-32 31-32 77l0 416" horiz-adv-x="1234" />

<glyph glyph-name="search" unicode="&#xe876;" d="M648 203q-111-111-269-111-156 0-268 111-111 110-111 268 0 156 111 267 112 112 268 112 158 0 269-112 110-111 110-267 0-158-110-268m-462 461q-81-81-81-193 0-114 81-194 81-81 193-81 114 0 194 81 81 80 81 194 0 112-81 193-80 80-194 80-112 0-193-80m814-682l-132-132-245 245 132 132 245-245" horiz-adv-x="1000" />

<glyph glyph-name="security" unicode="&#xe877;" d="M719 850q55 0 94-39 39-38 39-93l0-868-118 0 0 830-468 0 0-830-118 0 0 868q0 55 40 93 39 39 94 39l437 0m-41-662q0-13-9-23-10-8-22-8-13 0-23 8-8 10-8 23l0 135-26 0 0-435q0-16-12-27-10-11-25-11-16 0-27 11-11 11-11 27l0 271-29 0 0-271q0-16-11-27-11-11-27-11-15 0-26 11-12 11-12 27l0 435-26 0 0-135q0-13-8-23-10-8-23-8-12 0-21 8-9 10-9 23l0 197q0 26 18 44 18 19 43 19l232 0q25 0 43-19 19-18 19-44l0-197m-178 436q33 0 54-22 24-24 24-55 0-32-24-54-21-23-54-23-32 0-54 23-23 22-23 54 0 31 23 55 22 22 54 22m500-403l-116 58 116 59 0-117m0-188l-116 60 116 59 0-119m-441 700l0 63-118 0 0-63 118 0m441-325l-116 58 116 59 0-117m-1000 0l0 117 116-59-116-58m0-187l0 117 116-59-116-58m0-188l0 119 116-59-116-60" horiz-adv-x="1000" />

<glyph glyph-name="settings" unicode="&#xe878;" d="M668 538q-79 78-188 78-111 0-188-78-79-78-79-187 0-111 79-188 77-79 188-79 109 0 188 79 78 77 78 188 0 109-78 187m-64 160l0-11q60-23 104-60l10 5 148 48 93-159-117-105-9-5 5-60-5-62 9-5 117-104-92-160-149 49-10 5q-44-37-104-61l0-10-32-153-184 0-33 153 0 10q-60 24-105 61l-8-5-150-49-92 160 117 104 9 6-5 61 5 60-9 5-117 105 92 159 150-48 8-5q45 37 105 60l0 11 33 152 184 0 32-152m1-473q-52-52-126-52-73 0-125 52-52 52-52 126 0 73 52 125 52 52 125 52 74 0 126-52 53-52 53-125 0-74-53-126" horiz-adv-x="959" />

<glyph glyph-name="shockwave-ammo" unicode="&#xe879;" d="M295 81l70 111 0-121-139-221 7 267-233-89 149 208 63-21-31-45 117 46-3-135m-146 382l-149 210 233-90-7 267 139-221 0-121-70 111 3-135-117 46 31-45-63-22m108-51l138 0 0 5 17 0 0-5 10 0 0 5 24 0 48 23 385 0 0-180-385 0-48 23-24 0 0 6-10 0 0-6-17 0 0 6-138 0-140 24-86 22-27 12 0 7 27 11 86 22 140 25m694 28l4-9 0-162-4-9-15 0 0 9-19 0-11-9-2 0 0 180 2 0 11-10 19 0 0 10 15 0" horiz-adv-x="955" />

<glyph glyph-name="shop" unicode="&#xe87a;" d="M205 38q38 0 66-28 27-28 27-67 0-38-27-66-28-27-66-27-38 0-66 27-27 28-27 66 0 39 27 67 28 28 66 28m203 312l0 268-84 0 11-268 73 0m-295 268l47-268 71 0-11 268-107 0m597-580q38 0 65-28 28-28 28-67 0-38-28-66-27-27-65-27-38 0-67 27-26 28-26 66 0 39 26 67 29 28 67 28m-198 580l0-268 81 0 11 268-92 0m186-268l35 0 45 268-70 0-10-268m250 500q21 0 37-14 15-16 15-37 0-21-15-36-16-16-37-16l-43 0-107-634q-4-20-19-32-14-12-33-12l-598 0q-22 0-37 15-16 16-16 37 0 22 16 37 15 15 37 15l555 0 12 72-599 0q-18 0-33 13-15 11-18 30l-64 375q-4 22 11 41 17 19 40 19l744 0 15 85q2 18 17 30 14 12 33 12l87 0" horiz-adv-x="1000" />

<glyph glyph-name="shotgun" unicode="&#xe87b;" d="M514 442l-42-52 146-118 42 52-146 118m199-412l34 9-10 18-95 76-4-43 75-60m-430-45l0-114 4 0 0-20-132 0 0 20 3 0 0 114 9 0 0 189 108 0 0-189 8 0m-153 0l0-114 3 0 0-20-131 0 0 20 3 0 0 114 8 0 0 189 109 0 0-189 8 0m306-114l3 0 0-20-131 0 0 20 3 0 0 114 8 0 0 189 108 0 0-189 9 0 0-114m427 343q77-62 113-171 22-65 26-135 2-16-15-20l-167-37-10 2-5 9q-4 62-25 112-36-17-67-17-25 0-42 13l-87 70q-14 10-17 31-6 36 9 116l-222 178q-7 6-8 14 0 8 5 15l40 50-121 98-14-18q-10-11-25-14-16-1-28 8l-140 112q-12 11-14 26-1 16 9 28l14 17-72 58 73 91 72-57 15 18 198-159-15-19 129-104 0 0 391-315" horiz-adv-x="1002" />

<glyph glyph-name="smg" unicode="&#xe87c;" d="M644 137l19 45-83 58q-17-27-19-41l4-7 79-55m306 116q16-11 19-31 4-19-8-36l-100-143-41 29-85-202q-6-14-21-18-15-5-27 4l-103 72q-10 6-13 18-3 11 1 22l47 109-90 63q-63 44-2 137l-49 34q-123-136-357-201l-54 197q160 44 242 123l-123 86 11 11-197 138 48 69 203-142 19 21-240 168 48 69 247-173 26 36q6 9 16 7 10-1 13-10l33-81 116-82 54 59 303-212-37-71 101-70" horiz-adv-x="970" />

<glyph glyph-name="sniperrifle" unicode="&#xe87d;" d="M231-82q51 5 86 43 37 35 43 86l-48 0 0 34 48 0q-6 50-43 86-35 36-86 42l0-48-34 0 0 48q-51-6-87-42-36-36-42-86l48 0 0-34-48 0q6-51 42-86 36-38 87-43l0 47 34 0 0-47m196 163l0-36-23 0q-5-69-55-117-48-49-117-56l0-22-36 0 0 22q-69 7-117 56-50 48-56 117l-23 0 0 36 23 0q6 69 56 117 48 50 117 57l0 22 36 0 0-22q69-7 117-57 50-48 55-117l23 0m211 62l19 27-107 76q7-45 20-55l68-48m103-34q-17 13-37 10-20-4-31-20l-29-40q-5-8-13-9-9-1-16 4l-10 8q-7 4-9 13-2 8 4 15l4 5-67 48q-24 17-35 52-10 35-10 94l-120 86q-23 16-34 41-11 25-8 52l35 85-358 257 29 40 453-326 20 27-10 8-80 43 52 73 66-62 150-107 80-44-53-72-66 61-10 7-20-27 124-88q10-8 13-22 1-13-6-23l-4-6q-6-9-4-20 1-10 10-17l238-171 9-12q2-8-2-15l-97-207-149 108q-17 11-20 31-3 20 9 36l13 18q11 16 7 35-3 20-18 31" horiz-adv-x="998" />

<glyph glyph-name="stable" unicode="&#xe87e;" d="M348 762q-106 0-197-50l-64 65q119 73 261 73 142 0 262-73l-64-65q-91 50-198 50m348-368l0-89-57 0q-14-95-83-163-68-68-163-83l0-57-89 0 0 57q-95 15-164 83-67 68-82 163l-58 0 0 89 58 0q15 95 82 164 69 69 164 83l0 57 89 0 0-57q95-14 163-83 69-69 83-164l57 0m-303-246q58 13 102 56 42 43 56 101l-49 0 0 89 49 0q-14 59-56 102-44 43-102 56l0-48-89 0 0 48q-59-13-101-56-44-43-57-102l48 0 0-89-48 0q13-58 57-101 42-43 101-56l0 48 89 0 0-48m153-160l64-65q-120-73-262-73-142 0-261 73l64 65q91-50 197-50 107 0 198 50" horiz-adv-x="696" />

<glyph glyph-name="stable-2" unicode="&#xe87f;" d="M346 762q-106 0-197-50l-64 65q119 73 261 73 143 0 262-73l-64-65q-91 50-198 50m46-120q88-15 154-74l-65-61q-38 34-89 45l0-48-88 0 0 48q-60-13-102-56-43-43-57-102l49 0 0-88-49 0q14-59 57-101 42-43 102-56l0 48 88 0 0-48q51 11 90 45l64-61q-66-60-154-74l0-56-88 0 0 56q-95 15-165 84-67 68-82 163l-57 0 0 88 57 0q15 96 82 164 70 69 165 84l0 56 88 0 0-56m34-291l-51 51 40 39 50-50 55 54 41-42-54-54 51-51-39-39-51 51-54-55-42 42 54 54m180-177q1 23 6 42l14 34q9 15 20 27 11 13 25 24l54 42q29 20 51 39l17 21q7 11 7 24 0 22-13 35-11 13-35 13-26 0-39-16l-12-23q-5-13-5-31l-84 0q0 31 6 53 6 21 19 39 15 23 44 37 30 13 73 13l59-8q25-9 42-26 17-16 26-37 9-21 9-45l-5-35-13-28-20-23-23-20-25-19-27-18-24-19-22-19 0-1 160 0 0-75-285 0m-62-186l64-65q-119-73-262-73-142 0-261 73l64 65q91-50 197-50 107 0 198 50" horiz-adv-x="891" />

<glyph glyph-name="stable-3" unicode="&#xe880;" d="M346 762q-106 0-197-50l-64 65q119 73 261 73 143 0 262-73l-64-65q-91 50-198 50m46-120q88-15 154-74l-65-61q-38 34-89 45l0-48-88 0 0 48q-60-13-102-56-43-43-57-102l49 0 0-88-49 0q14-59 57-101 42-43 102-56l0 48 88 0 0-48q51 11 90 45l64-61q-66-60-154-74l0-56-88 0 0 56q-95 15-165 84-67 68-82 163l-57 0 0 88 57 0q15 96 82 164 70 69 165 84l0 56 88 0 0-56m34-291l-51 51 40 39 50-50 55 54 41-42-54-54 51-51-39-39-51 51-54-55-42 42 54 54m333-181l-68 9q-28 10-47 26-41 36-41 100l85 0q2-29 17-48 16-18 50-18 28 0 42 14 15 14 15 37 0 24-15 35-16 13-47 13l-22 0 0 63 20 0q25 0 41 10 15 11 15 32 0 18-12 30-13 12-35 12-30 0-44-17-13-16-15-40l-83 0q0 28 10 50 9 23 27 39 19 17 44 26l61 8 55-6q25-7 43-20 18-14 28-33 10-20 10-43 0-28-16-46-15-18-40-28l0 0q30-10 49-31 17-22 17-59 0-30-11-51-12-22-32-36-20-14-46-21l-55-7m-215-182l64-65q-119-73-262-73-142 0-261 73l64 65q91-50 197-50 107 0 198 50" horiz-adv-x="903" />

<glyph glyph-name="stable-4" unicode="&#xe881;" d="M346 762q-106 0-197-50l-64 65q119 73 261 73 143 0 262-73l-64-65q-91 50-198 50m46-120q88-15 154-74l-65-61q-38 34-89 45l0-48-88 0 0 48q-60-13-102-56-43-43-57-102l49 0 0-88-49 0q14-59 57-101 42-43 102-56l0 48 88 0 0-48q51 11 90 45l64-61q-66-60-154-74l0-56-88 0 0 56q-95 15-165 84-67 68-82 163l-57 0 0 88 57 0q15 96 82 164 70 69 165 84l0 56 88 0 0-56m34-291l-51 51 40 39 50-50 55 54 41-42-54-54 51-51-39-39-51 51-54-55-42 42 54 54m350-94l-171 0 0 83 169 206 89 0 0-221 53 0 0-68-53 0 0-81-87 0 0 81m0 68l0 126-2 0-101-124 0-2 103 0m-232-337l64-65q-119-73-262-73-142 0-261 73l64 65q91-50 197-50 107 0 198 50" horiz-adv-x="916" />

<glyph glyph-name="starting" unicode="&#xe882;" d="M1000-113q0-15-11-26-11-11-26-11l-854 0q-15 0-26 11-10 11-10 26l0 237 87 0 0-187 753 0 0 826-753 0 0-223-87 0 0 273q0 15 10 26 11 11 26 11l854 0q15 0 26-11 11-11 11-26l0-926m-704 146l235 256-531 0 0 124 531 0-234 258 157 0 291-319-292-319-157 0" horiz-adv-x="1000" />

<glyph glyph-name="stash-point-empty" unicode="&#xe883;" d="M225 88l0 23q0 17 13 29 12 13 30 14l347 0q18-1 31-14 12-12 12-29l0-23q0-17-12-30-13-12-32-12l-345 0q-19 0-31 12-13 13-13 30m615 762q17 0 29-12 14-13 14-32l0-912q0-19-14-32-12-12-31-12l-795 0q-18 0-30 12-13 13-13 32l0 912q0 19 13 32 12 12 30 12l22 0q17 0 29-12 14-13 14-31l0-849 668 0 0 849q1 18 14 31 13 12 28 12l22 0" horiz-adv-x="883" />

<glyph glyph-name="stash-point-full" unicode="&#xe884;" d="M225 88l0 23 0 2 0 40 0 2 0 3 0 48 0 2 0 3 0 51 0 2 0 22 0 2 0 3 0 24 0 3 0 24 0 2 0 24 0 3 0 22 0 2 0 3 0 24 0 2 0 22 0 2 0 3 0 48 0 3 0 2 0 49 0 2 0 3 0 40q0 16 13 29 12 13 30 14l347 0q18-1 31-14 12-13 12-29l0-40 0-3 0-2 0-49 0-2 0-3 0-51 0-2 0-22 0-2 0-3 0-21 0-3 0-2 0-25 0-2 0-22 0-2 0-3 0-21 0-3 0-24 0-3 0-2 0-22 0-2 0-3 0-48 0-3 0-2 0-48 0-3 0-2 0-40 0-2 0-23q0-17-12-30-13-12-32-12l-345 0q-19 0-31 12-13 13-13 30m615 762q17 0 29-12 14-13 14-32l0-912q0-19-14-32-12-12-31-12l-795 0q-18 0-30 12-13 13-13 32l0 912q0 19 13 32 12 12 30 12l22 0q17 0 29-12 14-13 14-31l0-849 668 0 0 849q1 18 14 31 13 12 28 12l22 0" horiz-adv-x="883" />

<glyph glyph-name="stats" unicode="&#xe885;" d="M542 850q190 0 324-134 134-134 134-324l-458 0 0 458m88-99l0-270 271 0q-25 99-98 172-73 73-173 98m286-443q0-190-134-324-134-134-324-134-190 0-325 134-133 134-133 324 0 190 133 324 135 134 325 134l0-458 458 0" horiz-adv-x="1000" />

<glyph glyph-name="steady-aim" unicode="&#xe886;" d="M238 777q120 73 262 73 142 0 261-73l-65-64q-91 49-196 49-106 0-197-49l-65 64m306-629q59 14 102 56 43 43 55 102l-48 0 0 87 48 0q-12 60-55 102-43 43-102 57l0-49-88 0 0 49q-59-14-102-57-43-42-56-102l48 0 0-87-48 0q13-59 56-102 43-42 102-56l0 49 88 0 0-49m303 245l0-87-57 0q-14-95-82-163-69-70-164-84l0-56-88 0 0 56q-95 14-164 84-68 68-83 163l-56 0 0 87 56 0q15 96 83 165 69 68 164 83l0 57 88 0 0-57q95-15 164-83 68-69 82-165l57 0m15 154l64 64q74-120 74-261 0-141-74-261l-64 64q50 92 50 197 0 105-50 197m-101-624q-119-73-261-73-142 0-262 73l65 64q91-50 197-50 105 0 196 50l65-64m-673 427q0-106 50-197l-65-64q-73 119-73 261 0 142 73 261l65-64q-50-91-50-197" horiz-adv-x="1000" />

<glyph glyph-name="steady-aim-2" unicode="&#xe887;" d="M238 777q120 73 262 73 142 0 261-73l-65-64q-91 49-196 49-106 0-197-49l-65 64m308-136q87-14 153-73l-64-61q-38 33-89 45l0-49-88 0 0 49q-60-14-102-57-43-42-57-102l49 0 0-87-49 0q14-59 57-102 42-42 102-56l0 49 88 0 0-49q51 12 90 45l63-60q-65-60-153-74l0-56-88 0 0 56q-95 14-165 84-67 68-82 163l-57 0 0 87 57 0q15 96 82 165 70 68 165 83l0 57 88 0 0-57m34-290l-51 51 39 39 51-51 54 54 42-41-54-55 51-50-39-40-51 51-54-54-42 42 54 54m180-177q1 23 6 42l13 33q9 15 20 28 12 13 26 24l53 42q30 20 51 39l18 21q6 10 6 24 0 21-12 35-12 12-35 12-26 0-39-16l-13-22q-4-13-4-32l-84 0q0 32 6 54 6 20 19 39 15 22 44 36 29 14 73 14l59-9q25-9 41-25 18-16 26-37 9-22 9-46l-5-34-13-28-19-23-23-20-25-19-27-18-24-20-22-19 0-1 159 0 0-74-284 0m1-251q-119-73-261-73-142 0-262 73l65 64q91-50 197-50 105 0 196 50l65-64m-673 427q0-106 50-197l-65-64q-73 119-73 261 0 142 73 261l65-64q-50-91-50-197" horiz-adv-x="1044" />

<glyph glyph-name="steady-aim-3" unicode="&#xe888;" d="M238 777q120 73 262 73 142 0 261-73l-65-64q-91 49-196 49-106 0-197-49l-65 64m308-136q87-14 153-73l-64-61q-38 33-89 45l0-49-88 0 0 49q-60-14-102-57-43-42-57-102l49 0 0-87-49 0q14-59 57-102 42-42 102-56l0 49 88 0 0-49q51 12 90 45l63-60q-65-60-153-74l0-56-88 0 0 56q-95 14-165 84-67 68-82 163l-57 0 0 87 57 0q15 96 82 165 70 68 165 83l0 57 88 0 0-57m34-290l-51 51 39 39 51-51 54 54 42-41-54-55 51-50-39-40-51 51-54-54-42 42 54 54m333-181l-68 9q-28 9-47 26-41 36-41 100l85 0q1-29 16-48 16-19 50-19 29 0 43 15 15 14 15 36 0 24-16 36-16 13-47 13l-21 0 0 62 20 0q25 0 41 11 15 11 15 32 0 18-13 30-12 11-35 11-29 0-43-16-14-16-15-40l-84 0q0 27 10 50 10 23 28 39 18 16 44 26l61 8 55-7q25-6 42-20 19-13 29-32 10-20 10-44 0-28-16-45-16-18-40-28l0-1q30-9 48-31 18-21 18-59 0-29-12-51-12-21-32-35-20-15-45-21l-55-7m-152-247q-119-73-261-73-142 0-262 73l65 64q91-50 197-50 105 0 196 50l65-64m-673 427q0-106 50-197l-65-64q-73 119-73 261 0 142 73 261l65-64q-50-91-50-197" horiz-adv-x="1057" />

<glyph glyph-name="steady-aim-4" unicode="&#xe889;" d="M238 777q120 73 262 73 142 0 261-73l-65-64q-91 49-196 49-106 0-197-49l-65 64m308-136q87-14 153-73l-64-61q-38 33-89 45l0-49-88 0 0 49q-60-14-102-57-43-42-57-102l49 0 0-87-49 0q14-59 57-102 42-42 102-56l0 49 88 0 0-49q51 12 90 45l63-60q-65-60-153-74l0-56-88 0 0 56q-95 14-165 84-67 68-82 163l-57 0 0 87 57 0q15 96 82 165 70 68 165 83l0 57 88 0 0-57m34-290l-51 51 39 39 51-51 54 54 42-41-54-55 51-50-39-40-51 51-54-54-42 42 54 54m349-94l-171 0 0 83 170 205 89 0 0-220 52 0 0-68-52 0 0-81-88 0 0 81m0 68l0 126-1 0-101-124 0-2 102 0m-168-402q-119-73-261-73-142 0-262 73l65 64q91-50 197-50 105 0 196 50l65-64m-673 427q0-106 50-197l-65-64q-73 119-73 261 0 142 73 261l65-64q-50-91-50-197" horiz-adv-x="1069" />

<glyph glyph-name="story" unicode="&#xe88a;" d="M253 65q35-119 94-191-79 25-146 75-65 49-113 116l165 0m-253 256l215 0q4-108 23-197l-185 0q-48 94-53 197m253 314l-165 0q48 68 113 117 67 50 146 75-59-73-94-192m-200-58l185 0q-19-89-23-198l-215 0q5 104 53 198m695-512l164 0q-47-67-114-116-66-50-145-75 60 72 95 191m-434 0l371 0q-31-99-78-157-50-58-107-58-57 0-107 58-47 58-79 157m412 256q-3-108-24-197l-404 0q-20 89-24 197l452 0m36-197q19 89 23 197l215 0q-5-103-53-197l-185 0m-14 511q-35 119-95 192 79-25 145-75 67-49 114-117l-164 0m-46-58q21-89 24-198l-452 0q4 109 24 198l404 0m60 0l185 0q48-94 53-198l-215 0q-4 109-23 198m-77 58l-371 0q32 99 79 156 50 59 107 59 57 0 107-59 47-57 78-156" horiz-adv-x="1000" />

<glyph glyph-name="subsonic" unicode="&#xe88b;" d="M487 59q85 81 200 81 115 0 197-81l-197-209-200 209m200 413q121 0 233-45 108-45 193-125l-159-169q-113 107-267 107-156 0-268-107l-159 169q84 80 192 125 112 45 235 45m0 378q195 0 375-74 174-70 311-199l-191-202q-98 94-224 144-130 54-271 54-142 0-273-54-126-50-224-144l-190 202 88 74q102 77 222 125 181 74 377 74" horiz-adv-x="1373" />

<glyph glyph-name="suitcase" unicode="&#xe88c;" d="M354 772l0-89 291 0 0 89-291 0m379-10l0-79 59 0 0-760-588 0 0 760 62 0 0 88q0 32 27 56 26 23 61 23l291 0q37 0 63-26 25-26 25-62m-602-80l0-758q-54 0-93 38-38 40-38 94l0 494q0 54 38 93 39 39 93 39m737 1q54 0 93-40 39-39 39-93l0-494q0-54-39-94-39-39-93-39l-2 0 0 760 2 0m-737-760l73 0 0-36q0-15-10-26-11-11-26-11-15 0-26 11-11 11-11 26l0 36m661 0l74 0 0-36q0-15-11-26-11-11-27-11-14 0-25 11-11 11-11 26l0 36" horiz-adv-x="1000" />

<glyph glyph-name="suppressor" unicode="&#xe88d;" d="M943 77q24 0 40-17 17-16 17-40l0-170-527 0 0 242q29 0 50-21 20-19 20-47l0 269q0 24 17 40 17 17 40 17 24 0 41-17 17-16 17-40l0-217q0 22 17 38 16 18 39 18 24 0 41-18 17-16 17-40l0-26q1 23 16 40 18 16 41 16 24 0 40-16 17-18 17-41l0-25q1 23 17 38 16 17 40 17m-494 351l-74-27 0-140q0-53-37-91-38-37-90-37l-248 0 0 717 392 0 102-330 4-22q0-24-14-43-13-19-35-27" horiz-adv-x="1000" />

<glyph glyph-name="tag" unicode="&#xe88e;" d="M4 643l203 203 199 4 594-594-406-406-594 594 4 199m325-121q26 26 26 62 0 38-26 64-26 25-63 25-37 0-63-25-25-26-25-64 0-36 25-62 26-27 63-27 37 0 63 27" horiz-adv-x="1000" />

<glyph glyph-name="target" unicode="&#xe88f;" d="M543-9q124 14 213 103 89 89 103 214l-117 0 0 85 117 0q-14 125-103 214-89 89-213 103l0-117-86 0 0 117q-124-14-214-103-89-89-103-214l118 0 0-85-118 0q14-125 103-214 90-89 214-103l0 117 86 0 0-117m457 402l0-85-53 0q-16-161-130-275-114-114-274-130l0-53-86 0 0 53q-160 16-274 130-115 114-130 275l-53 0 0 85 53 0q15 160 130 275 114 114 274 129l0 53 86 0 0-53q160-15 274-129 114-115 130-275l53 0" horiz-adv-x="1000" />

<glyph glyph-name="timed" unicode="&#xe890;" d="M415 183q35 0 58 24 24 24 24 59 0 26-14 48-15 21-38 30l0 178q0 12-9 21-9 9-21 9-13 0-21-9-8-9-8-21l0-178q-25-9-40-30-14-22-14-48 0-35 24-59 25-24 59-24m392 351l-43-44q65-102 65-224 0-172-120-294-122-122-294-122-173 0-294 122-121 122-121 294 0 160 107 278 107 118 264 135l0 83-56 0q-19 0-32 13-12 13-12 31 0 18 12 32 13 12 32 12l200 0q19 0 31-12 13-14 13-32 0-18-13-31-12-13-31-13l-56 0 0-83q99-11 181-64l42 44q26 25 62 25 37 0 63-25 26-26 26-63 0-37-26-62" horiz-adv-x="833" />

<glyph glyph-name="toggle-left" unicode="&#xe891;" d="M665 680q-43 19-79-9l-332-263q-26-23-26-59 0-33 26-56l332-264q36-30 79-8 42 19 42 66l0 527q0 46-42 66m303 140q32-32 32-77l0-786q0-45-32-75-30-32-75-32l-785 0q-45 0-75 32-33 30-33 75l0 786q0 45 33 77 30 30 75 30l785 0q45 0 75-30" horiz-adv-x="1000" />

<glyph glyph-name="toggle-right" unicode="&#xe892;" d="M968 820q32-32 32-77l0-786q0-45-32-75-31-32-76-32l-784 0q-45 0-75 32-33 30-33 75l0 786q0 45 33 77 30 30 75 30l784 0q45 0 76-30m-195-471q0 36-27 59l-332 263q-36 28-79 9-42-20-42-66l0-527q0-47 42-66 43-22 79 8l332 264q27 23 27 56" horiz-adv-x="1000" />

<glyph glyph-name="tool" unicode="&#xe893;" d="M719 446l-314-314q27-55 18-115-10-61-54-104-36-36-84-52l-97-9q-10 1-13 11-3 9 3 17l107 121q12 12-56 79-68 67-80 55l-121-106-16-2q-9 3-10 12-7 50 8 97 17 49 53 86 46 46 105 53 55 8 112-20l315 314q-27 55-18 114 10 62 53 105 37 36 85 51 48 16 96 9 10-1 13-10 4-10-2-17l-107-120q-12-13 56-80 67-68 79-56l121 107q8 6 17 3 10-4 10-13 6-49-9-98-16-48-52-85-46-46-105-53-56-8-113 20" horiz-adv-x="1000" />

<glyph glyph-name="trash" unicode="&#xe894;" d="M63 511l-36-10-26 98 2 17q5 9 14 11l145 38-10 40q-9 33 8 62 17 29 50 38l160 43q33 8 63-10 28-15 37-49l10-40 145 37 17-2 10-14 26-99-617-160 2 0 598 0 0-597q0-26-20-45-18-19-43-19l-471 0q-26 0-45 19-19 19-19 45l0 597m98-112l0-422q0-15 12-26 11-12 27-12 14 0 26 12 10 11 10 26l0 422q0 14-10 26-12 12-26 12-16 0-27-12-12-12-12-26m329 0l0-422q0-15 12-26 11-12 26-12 15 0 27 12 11 11 11 26l0 422q0 14-11 26-12 12-27 12-15 0-26-12-12-12-12-26m-165 0l0-422q0-15 12-26 11-12 26-12 15 0 27 12 11 11 11 26l0 422q0 14-11 26-12 12-27 12-15 0-26-12-12-12-12-26m-97 327l10-42 164 43-10 41-1 2-161-42-2-2" horiz-adv-x="678" />

<glyph glyph-name="tutorial" unicode="&#xe895;" d="M134 583q-55 0-94 40-39 38-39 94 0 55 39 94 39 39 94 39 55 0 94-39 39-39 39-94 0-56-39-94-39-40-94-40m305-249q11-14 9-31 0-18-13-30-13-15-32-15-20 0-34 15l-103 104 0-467q0-23-15-38-16-15-38-15-21 0-37 15-15 15-15 38l0 272-56 0 0-279q0-22-16-37-15-16-36-16-22 0-38 16-15 15-15 37l0 589q0 16 13 29 12 12 29 12l182 0q17 0 28-11l106-106 0 434 642 0 0-516-561 0 264 292-18 17-284-272 38-37" horiz-adv-x="1000" />

<glyph glyph-name="unlocked" unicode="&#xe896;" d="M637 266q9 42-19 70-22 22-52 22-31 0-52-22-22-21-22-51 0-31 22-53 28-28 70-19l76-77q11-11 27-11 15 0 27 11 11 12 11 27 0 16-11 27l-77 76m12 355q11 11 27 11 15 0 26-11l286-286q12-12 12-28 0-16-12-27l-418-418q-11-12-27-12-16 0-28 12l-286 286q-10 11-10 26 0 16 10 27l298 297-189 189q-36 36-88 36-51 0-87-36-36-36-36-87 0-52 36-88l59-58-90-89-59 57q-73 74-73 178 0 103 73 177 74 73 177 73 104 0 178-73l188-189 33 33" horiz-adv-x="1000" />

<glyph glyph-name="variable" unicode="&#xe897;" d="M423 850q175 0 299-124 124-123 124-298 0-176-124-300-124-124-299-124-175 0-299 124-124 125-124 300 0 175 124 298 124 124 299 124m30-340l76 0 31-54 1 0 30 54 70 0-63-99 73-112-78 0-35 64 0 0-40-64-72 0 72 111-65 100m372-352l175-176-132-132-175 175 132 133m-402 589q-132 0-226-94-94-94-94-225 0-133 94-227 94-93 226-93 132 0 226 93 94 94 94 227 0 131-94 225-94 94-226 94m-206-415l11 26 15 20 20 20 40 31 40 30 14 17q5 10 5 19 0 15-9 27-10 10-28 10-20 0-31-14l-9-16-3-24-66 0q0 21 6 40l14 30q12 19 35 29 22 11 56 11l45-8q19-7 32-19 14-13 20-28 7-17 7-36l-3-26-11-22q-6-8-14-17l-94-74 0-1 123 0 0-58-219 0 4 33" horiz-adv-x="1000" />

<glyph glyph-name="versatile-scope" unicode="&#xe898;" d="M423 850q175 0 299-123 124-124 124-299 0-176-124-300-124-124-299-124-175 0-299 124-124 125-124 300 0 175 124 299 124 123 299 123m36-341l78 0 31-55 0 0 30 55 70 0-62-100 72-111-78 0-34 63-1 0-38-63-74 0 74 111-68 100m366-351l175-176-132-132-175 175 132 133m-402 589q-132 0-226-94-94-94-94-225 0-133 94-227 94-93 226-93 132 0 226 93 94 94 94 227 0 131-94 225-94 94-226 94m-145-449q-25 8-37 20-32 29-32 78l65 0q3-24 14-38 12-14 39-14 21 0 32 11 12 10 12 28 0 20-13 28-11 10-36 10l-17 0 0 47 16 0q20 0 32 10 12 7 12 24 0 14-11 23-8 9-26 9-23 0-34-12-11-14-11-31l-65 0 8 37 21 31q12 12 35 19l46 7 43-5q18-5 32-15l22-25q8-15 8-34 0-23-12-35-13-15-31-21l0-2q22-5 38-23 13-17 13-46 0-22-9-38-9-18-24-28l-36-16-43-6-51 7" horiz-adv-x="1000" />

<glyph glyph-name="versatile-scope-1" unicode="&#xe899;" d="M825 158l175-176-132-132-175 175 132 133m-402 692q175 0 299-123 124-124 124-299 0-176-124-300-124-124-299-124-175 0-299 124-124 125-124 300 0 175 124 299 124 123 299 123m0-103q-132 0-226-94-94-94-94-225 0-133 94-227 94-93 226-93 132 0 226 93 94 94 94 227 0 131-94 225-94 94-226 94" horiz-adv-x="1000" />

<glyph glyph-name="versatile-scope-2" unicode="&#xe89a;" d="M357 263l6 41 13 34 20 27 26 24 53 42q29 20 51 39l17 21q7 11 7 24 0 22-12 35-12 13-35 13-26 0-40-16l-12-23-4-31-84 0q0 31 5 53 6 21 20 39 15 23 44 37 29 13 72 13l59-8 42-26q18-16 26-37 9-21 9-46l-5-34-13-28-19-23-24-20-25-19-26-18-25-19-21-19 0-1 159 0 0-74-284 0m66 587q175 0 299-123 124-124 124-299 0-176-124-300-124-124-299-124-175 0-299 124-124 125-124 300 0 175 124 299 124 123 299 123m0-103q-132 0-226-94-94-94-94-225 0-133 94-227 94-93 226-93 132 0 226 93 94 94 94 227 0 131-94 225-94 94-226 94m-226-308l-51 51 39 39 51-51 54 55 42-42-54-54 50-51-39-39-51 51-54-55-41 42 54 54m628-281l175-176-132-132-175 175 132 133" horiz-adv-x="1000" />

<glyph glyph-name="versatile-scope-3" unicode="&#xe89b;" d="M512 252l-68 9q-28 9-47 26-41 36-41 100l85 0q2-29 17-49 15-18 50-18 28 0 42 14 15 14 15 37 0 24-16 36-16 12-46 12l-22 0 0 63 20 0q25 0 41 11 15 10 15 31 0 19-13 30-12 12-35 12-29 0-43-17-13-16-15-40l-83 0q0 28 10 50 9 24 27 39 18 17 44 26l61 9 55-7q25-7 43-20 18-13 28-33 10-20 10-43 0-28-16-46-16-17-40-27l0-1q30-9 48-31 18-22 18-59 0-29-12-51-11-22-31-36-20-14-46-21l-55-6m-89 598q175 0 299-123 124-124 124-299 0-176-124-300-124-124-299-124-175 0-299 124-124 125-124 300 0 175 124 299 124 123 299 123m0-103q-132 0-226-94-94-94-94-225 0-133 94-227 94-93 226-93 132 0 226 93 94 94 94 227 0 131-94 225-94 94-226 94m-226-308l-51 51 39 39 51-51 54 55 42-42-54-54 50-51-39-39-51 51-54-55-41 42 54 54m628-281l175-176-132-132-175 175 132 133" horiz-adv-x="1000" />

<glyph glyph-name="versatile-scope-4" unicode="&#xe89c;" d="M526 335l-171 0 0 83 169 205 89 0 0-220 53 0 0-68-53 0 0-81-87 0 0 81m0 68l0 126-2 0-101-124 0-2 103 0m-103 447q175 0 299-123 124-124 124-299 0-176-124-300-124-124-299-124-175 0-299 124-124 125-124 300 0 175 124 299 124 123 299 123m0-103q-132 0-226-94-94-94-94-225 0-133 94-227 94-93 226-93 132 0 226 93 94 94 94 227 0 131-94 225-94 94-226 94m-226-308l-51 51 39 39 51-51 54 55 42-42-54-54 50-51-39-39-51 51-54-55-41 42 54 54m628-281l175-176-132-132-175 175 132 133" horiz-adv-x="1000" />

<glyph glyph-name="versatile-scope-extended" unicode="&#xe89d;" d="M528 408l-68 101 78 0 31-55 1 0 30 55 71 0-63-101 73-112-79 0-35 63-1 0-38-63-75 0 75 112m297-250l175-176-132-132-175 175 132 133m-402 692q175 0 299-123 124-124 124-299 0-176-124-300-124-124-299-124-175 0-299 124-124 125-124 300 0 175 124 299 124 123 299 123m0-103q-132 0-226-94-94-94-94-225 0-133 94-227 94-93 226-93 132 0 226 93 94 94 94 227 0 131-94 225-94 94-226 94m-90-387l-133 0 0 65 133 160 69 0 0-172 41 0 0-53-41 0 0-63-69 0 0 63m0 53l0 99 0 0-80-98 0-1 80 0" horiz-adv-x="1000" />

<glyph glyph-name="versus" unicode="&#xe89e;" d="M484 490l-437-426q-19-20-32-16-13 4-15 23l3 251 229 201 8 0 12 24-5 10-4 32-3 27-17 37-8 33q-1 21 3 21 7 2 14-6l-5 21q0 27 9 55 11 31 42 53 29 20 61 20 30 0 59-20 31-22 42-53 10-28 8-55l-3-21 4 4 9 2q5 0 3-21l-7-33q-6-19-18-37l-6-59-6-10 12-24 8 0 40-33 1 1 0-1-1 0m-215-279l438 425q17 20 31 16 13-4 14-23l-3-251-229-200-7 0-12-24 5-11 6-58 7-12 11-25 7-33q3-21-2-22l-10 2-4 5 4-22q2-26-8-54-11-32-43-53-29-21-59-21-31 0-61 21-31 21-42 53-10 28-8 54l3 22q-6-9-13-7-4 1-3 22l7 33 13 25 6 12 2 26 4 32 5 11-12 24-7 0-40 33-1-1 0 1 1 0" horiz-adv-x="752" />

<glyph glyph-name="wall-piercing-ammo" unicode="&#xe89f;" d="M5 270l510-145 0-275-510 0 0 420m1014 177l5-9 0-175-5-10-16 0 0 10-20 0-12-10-2 0 0 194 2 0 12-11 20 0 0 11 16 0m-504 128l-510-145 0 420 510 0 0-275m-242-159l149 0 0 6 18 0 0-6 11 0 0 6 25 0 52 25 414 0 0-194-414 0-52 25-25 0 0 6-11 0 0-6-18 0 0 6-149 0-150 26-93 24-30 12 0 8 30 12 93 24 150 26" horiz-adv-x="1024" />

<glyph glyph-name="warning" unicode="&#xe8a0;" d="M529 163l31 222 0 121-120 0 0-121 31-222 58 0m462-231q17-35 2-58-15-24-54-24l-878 0q-39 0-53 24-16 24 1 58l449 884q18 34 42 34 25 0 42-34l449-884m-551 63l120 0 0 121-120 0 0-121" horiz-adv-x="1000" />

<glyph glyph-name="witness" unicode="&#xe8a1;" d="M619 473q34 0 59 24 25 25 25 59 0 34-25 58-25 24-59 24-35 0-59-24-24-23-24-58 0-34 24-59 24-24 59-24m-119 377q123 0 209-86 88-86 88-208 0-123-88-209-86-86-209-86-123 0-210 86-87 86-87 209 0 122 87 208 87 86 210 86m500-788l0-212-157 0 0 90q0 26-19 44-19 19-45 19l-6 0 0-153-547 0 0 153-6 0q-26 0-45-19-18-18-18-44l0-90-157 0 0 212q0 63 45 107 45 45 108 45l694 0q62 0 108-45 45-45 45-107m-620 411q35 0 59 24 24 25 24 59 0 35-24 58-24 24-59 24-34 0-59-24-24-24-24-58 0-34 24-59 25-24 59-24" horiz-adv-x="1000" />

<glyph glyph-name="add-to-list" unicode="&#xe8a2;" d="M120 190q23-60 74-118l-194 0 0 118 120 0m78 440q-46-48-76-118l-122 0 0 118 198 0m-111-281l4-57-91 0 0 117 91 0-4-60m414-415q82 0 165 34l336 0 0-118-1002 0 0 118 335 0q78-34 166-34m308 138q46 50 73 118l120 0 0-118-193 0m74 440q-26 60-77 118l197 0 0-118-120 0m32-163l-4 60 92 0 0-117-92 0 4 57m-414 342q141 0 242-101 100-100 100-241 0-142-100-242-100-100-242-100-142 0-242 100-101 100-101 242 0 141 102 241 100 101 241 101m216-399l0 114-160 0 0 160-114 0 0-160-161 0 0-114 161 0 0-161 114 0 0 161 160 0m-717 558l1003 0 0-118-342 0q-73 31-158 31-80 0-158-31l-345 0 0 118" horiz-adv-x="1003" />

<glyph glyph-name="ammo" unicode="&#xe8a3;" d="M581 580l0 112 148 0 0 158 120 0 0-158 148 0 0-112-148 0 0-157-120 0 0 157-148 0m-118-388l0-39 16 0 28-16 35-14q34-16 34-30 0-14-34-30l-35-14-28-16-16 0 0-51 44 0 0-88q0-18-14-31-12-13-29-13l-420 0q-19 0-31 13-13 13-13 31l0 88 45 0 0 567q0 12 8 19 9 10 22 10l359 0q12 0 20-10 9-8 9-19l0-76 16 0 28-16 35-13q34-17 34-31 0-13-34-31l-35-13-28-16-16 0 0-39 16 0 28-16 35-14q34-17 34-31 0-13-34-31l-35-13-28-17-16 0" horiz-adv-x="997" />

<glyph glyph-name="arrow-down" unicode="&#xe8a4;" d="M1000 305l-500-455-500 457 0 245 403-368 0 666 194 0 0-666 403 366 0-245" horiz-adv-x="1000" />

<glyph glyph-name="arrow-left" unicode="&#xe8a5;" d="M334 447l666 0 0-194-666 0 368-403-245 0-457 500 455 500 245 0-366-403" horiz-adv-x="1000" />

<glyph glyph-name="arrow-right" unicode="&#xe8a6;" d="M1000 350l-457-500-245 0 368 403-666 0 0 194 666 0-366 403 245 0 455-500" horiz-adv-x="1000" />

<glyph glyph-name="arrow-up" unicode="&#xe8a7;" d="M500 850l500-457 0-245-403 368 0-666-194 0 0 666-403-366 0 245 500 455" horiz-adv-x="1000" />

<glyph glyph-name="assault-rifle" unicode="&#xe8a8;" d="M181 795l-30-43 35-24-5 67m965-774l-111-158q-9-11-23-13-14-2-25 9l-231 257-50-120-108 76 68 163-112 78-23-33-20 14q-80-72-214-109l-38 135q81 23 132 57l-11 8 24 34-28 19 40 58-37 26-24-36-195 158 15 21-175 122 33 48 82-58 41 57q11 17 31 16 20 0 35-19l1-4 6-97 208-125-25-36 38-26 13 19 112-77 37 40 207-146-25-48 96-66-30-44 286-200" horiz-adv-x="1145" />

<glyph glyph-name="audio" unicode="&#xe8a9;" d="M1010-78q-14-25-44-25-13 0-28 9l-116 75q-19 11-23 32-4 21 7 39 12 20 33 24 21 4 39-7l117-75q18-11 22-33 6-21-7-39m9 427q0-21-15-36-16-16-38-16l-116 0q-22 0-38 16-15 15-15 36 0 22 15 38 16 15 38 15l116 0q22 0 38-15 15-16 15-38m-317 493q14 12 31 5 17-8 17-25l0-945q0-17-17-25-17-7-31 6l-418 347 0 289 418 348m177-211q-12-8-28-8-29 0-44 24-12 19-7 40 4 20 22 32l116 75q19 11 40 7 20-5 32-24 13-18 7-39-4-21-22-32l-116-75m-686-458l-165 0q-12 0-19 9-9 8-9 20l0 296q0 12 9 19l19 8 165 0q12 0 19-8 9-7 9-19l0-296q0-12-9-20-7-9-19-9" horiz-adv-x="1019" />

<glyph glyph-name="background" unicode="&#xe8aa;" d="M777 223l0 89-669 0 0-89 669 0m-94-181l0 88-575 0 0-88 575 0m155 808q19 0 31-12 14-13 14-32l0-912q0-19-14-32-12-12-31-12l-795 0q-18 0-30 12-13 13-13 32l0 912q0 19 13 32 12 12 30 12l795 0m-61-445l0 88-669 0 0-88 669 0m0 182l0 89-669 0 0-89 669 0" horiz-adv-x="883" />

</font>
</defs>
</svg>
